<?xml version="1.0" standalone="no"?>
<!DOCTYPE svg PUBLIC "-//W3C//DTD SVG 1.1//EN" "http://www.w3.org/Graphics/SVG/1.1/DTD/svg11.dtd" >
<svg>
<metadata>
Created by FontForge 20110222 at Mon Mar  7 04:30:32 2011
 By www-data
Copyright [c] Typographer Mediengestaltung, 2001. Designer: Prof. Rudolf Koch.
</metadata>
<defs>
<font id="Holla" horiz-adv-x="341" >
  <font-face 
    font-family="Holla"
    font-weight="400"
    font-stretch="normal"
    units-per-em="1000"
    panose-1="2 0 5 3 0 0 0 0 0 0"
    ascent="800"
    descent="-200"
    x-height="430"
    cap-height="679"
    bbox="-34 -209 876 845"
    underline-thickness="20"
    underline-position="-143"
    unicode-range="U+0020-2122"
  />
    <missing-glyph />
    <glyph glyph-name="space" unicode=" " horiz-adv-x="213" 
 />
    <glyph glyph-name="exclam" unicode="!" horiz-adv-x="229" 
d="M180 694c-27 -97 -44 -206 -51 -329c-8 -162 -13 -180 -53 -180l-36 -18c-10 45 -15 115 -15 209c0 114 5 204 16 270zM141 39c-51 -29 -79 -44 -84 -44c-21 0 -52 49 -65 91c39 30 70 45 93 45c3 0 7 -11 12 -32c3 -14 18 -34 44 -60z" />
    <glyph glyph-name="quotedbl" unicode="&#x22;" horiz-adv-x="305" 
d="M262 688c-15 -54 -28 -122 -37 -204c-8 -75 -14 -109 -42 -109l-23 -11c-7 24 -10 68 -10 131c0 73 3 130 10 171zM120 676c-19 -67 -44 -233 -44 -268c-7 -30 -18 -45 -35 -45l-23 -11c-7 27 -10 71 -10 132c0 73 3 130 10 170z" />
    <glyph glyph-name="numbersign" unicode="#" horiz-adv-x="391" 
d="M369 468l-15 -78h-63l-30 -162h61l-15 -78h-60l-28 -149l-33 -1l27 150h-116l-28 -149l-33 -1l27 150h-70l15 78h70l29 162h-64l15 78h63l25 133l34 2l-25 -135h116l25 133l34 2l-25 -135h64zM257 390h-116l-30 -162h117z" />
    <glyph glyph-name="dollar" unicode="$" horiz-adv-x="434" 
d="M409 576c0 -16 -9 -41 -27 -74c-20 40 -40 70 -59 89c-18 -13 -38 -76 -50 -154c0 -7 10 -27 29 -61c64 -115 83 -164 83 -220c0 -100 -36 -128 -145 -161c-45 -13 -76 -29 -93 -48h-33c3 9 5 15 5 18c0 8 -10 16 -30 25c-53 23 -60 30 -79 112c-10 42 -15 75 -15 99
c0 45 1 47 75 100c4 -170 11 -206 63 -248l57 215c-13 26 -25 48 -37 67c-47 77 -63 102 -63 152c0 84 43 113 233 210c4 -5 6 -10 6 -17c0 -5 -1 -8 -3 -10c70 -40 83 -52 83 -94zM272 607c-47 -5 -70 -23 -70 -55c0 -23 13 -48 39 -74zM261 91c0 20 -23 90 -39 121
c-49 -150 -49 -150 -49 -188h31c28 0 57 35 57 67z" />
    <glyph glyph-name="percent" unicode="%" horiz-adv-x="500" 
d="M469 256c-9 -10 -18 -21 -28 -33c7 -21 10 -40 10 -61c0 -95 -58 -166 -134 -166c-52 0 -78 39 -78 116c0 69 25 111 85 167v15c33 24 52 36 55 36c4 0 7 -1 10 -3c5 0 18 -15 27 -31c9 -15 26 -29 53 -40zM491 550l-475 -565c-7 7 -17 10 -32 10l403 480
c-54 -9 -98 -14 -131 -14c-29 0 -49 3 -60 9l-1 -9v-4c4 -4 11 -34 11 -62c0 -93 -59 -166 -134 -166c-53 0 -79 39 -79 117c0 51 18 97 54 138c29 25 30 26 32 43c29 24 48 36 55 36c14 0 23 -12 55 -62c11 -5 27 -7 46 -7c78 0 174 28 205 66zM385 143
c0 52 -17 101 -39 101c-19 0 -39 -59 -39 -115c0 -43 16 -84 40 -84c19 1 38 3 38 98zM140 377c0 39 -12 100 -40 100c-19 0 -39 -59 -39 -115c0 -48 20 -84 41 -84c26 2 38 21 38 99z" />
    <glyph glyph-name="ampersand" unicode="&#x26;" horiz-adv-x="580" 
d="M563 84c0 -6 -81 -86 -119 -86c-57 0 -155 51 -204 104c-111 -114 -129 -130 -189 -130c-30 0 -55 25 -55 56c0 46 87 199 151 263l-8 139c0 171 61 257 182 257c23 0 52 -35 52 -62c0 -90 -84 -289 -109 -289c1 -12 12 -33 32 -65c22 27 45 69 69 126
c29 21 64 35 105 43c-15 -31 -54 -98 -118 -201c-12 -19 -18 -30 -19 -33c0 -35 176 -107 218 -108c8 -4 12 -9 12 -14zM295 574c0 33 -11 52 -34 57c-25 -24 -37 -75 -37 -154c0 -33 4 -58 13 -75c43 43 58 88 58 172zM207 147c-8 13 -20 36 -36 69
c-37 -29 -69 -90 -69 -134c0 -11 2 -16 7 -16c12 0 98 59 98 81z" />
    <glyph glyph-name="quotesingle" unicode="'" horiz-adv-x="163" 
d="M120 676c-18 -64 -44 -229 -44 -268c-7 -30 -18 -45 -35 -45l-23 -11c-7 27 -10 71 -10 132c0 73 3 130 10 170z" />
    <glyph glyph-name="parenleft" unicode="(" horiz-adv-x="347" 
d="M276 -21c-22 -38 -90 -80 -127 -80c-80 0 -133 113 -133 278c0 241 86 462 240 542c13 -21 20 -33 20 -36s-1 -5 -4 -7c-41 -31 -55 -53 -77 -109c-33 -83 -49 -180 -49 -291c0 -169 32 -263 96 -282c14 0 22 -4 34 -15z" />
    <glyph glyph-name="parenright" unicode=")" horiz-adv-x="330" 
d="M289 407c0 -236 -89 -415 -254 -512c-15 11 -22 22 -22 35l55 75c51 70 77 181 77 333c0 170 -46 263 -138 280c-7 5 -10 10 -10 16c0 20 109 84 151 84c86 0 141 -124 141 -311z" />
    <glyph glyph-name="asterisk" unicode="*" horiz-adv-x="508" 
d="M468 536l-167 -28l119 -112l-82 -72l-77 150l-80 -153l-84 60l118 120l-167 30l29 98l150 -76l-26 168l105 3l-25 -166l151 80z" />
    <glyph glyph-name="plus" unicode="+" horiz-adv-x="515" 
d="M483 386l-13 -96l-174 2l-28 -179h-95l28 179l-175 -2l13 96h171l25 177h95l-24 -177h177z" />
    <glyph glyph-name="comma" unicode="," horiz-adv-x="221" 
d="M185 174c-7 -20 -18 -42 -31 -65l-36 -63c-39 -68 -51 -108 -62 -158c-7 -15 -8 -15 -62 -21c1 92 10 112 80 278z" />
    <glyph glyph-name="hyphen" unicode="-" horiz-adv-x="240" 
d="M209 332l-210 -106v38l210 106v-38zM209 252l-210 -106v38l210 106v-38z" />
    <glyph glyph-name="period" unicode="." horiz-adv-x="199" 
d="M155 40c-13 -19 -63 -56 -78 -56c-48 0 -57 46 -57 97c37 19 69 31 98 35c4 -47 9 -57 37 -76z" />
    <glyph glyph-name="slash" unicode="/" horiz-adv-x="351" 
d="M337 586l-299 -608l-43 11l302 613z" />
    <glyph glyph-name="zero" unicode="0" horiz-adv-x="363" 
d="M360 421c-9 -11 -22 -27 -41 -50c13 -45 17 -58 17 -104c0 -152 -90 -268 -215 -268c-102 0 -123 112 -123 186c0 99 40 184 120 256c20 14 22 16 23 42c47 37 75 56 83 56c16 0 44 -22 50 -39c14 -41 23 -49 86 -79zM243 237c0 80 -30 175 -74 175
c-36 0 -74 -111 -74 -200c0 -77 35 -148 76 -148c45 0 72 64 72 173z" />
    <glyph glyph-name="one" unicode="1" horiz-adv-x="265" 
d="M200 519c0 -19 -4 -45 -12 -78c-15 -66 -15 -67 -33 -272c-4 -44 -10 -91 -18 -141c-1 -9 -33 -22 -95 -39l30 406c-38 -18 -44 -21 -45 -21c-8 0 -14 8 -17 23l62 60c25 24 44 45 57 64c33 7 41 8 42 8h24c3 -7 3 -7 5 -10z" />
    <glyph glyph-name="two" unicode="2" horiz-adv-x="363" 
d="M324 436c0 -89 -75 -215 -173 -291c51 -51 79 -77 83 -77c5 0 14 10 29 29c23 29 26 29 49 29c5 -3 8 -7 8 -12c0 -37 -99 -129 -136 -129c-27 0 -68 25 -125 76c-6 0 -14 -7 -23 -21c-9 -13 -18 -20 -29 -20c-14 0 -21 3 -21 10c0 9 26 45 78 108c58 70 80 106 91 144
l-9 3c-56 -27 -68 -31 -79 -31c-30 0 -67 52 -67 88c0 81 125 194 212 194c70 0 112 -38 112 -100zM210 433c0 16 -21 34 -40 34c-40 0 -70 -46 -70 -96c0 -28 7 -42 20 -42c47 0 90 51 90 104z" />
    <glyph glyph-name="three" unicode="3" horiz-adv-x="350" 
d="M298 417c0 -44 -30 -87 -90 -128v-9c49 -32 73 -76 73 -131c0 -81 -78 -157 -162 -157c-44 0 -118 83 -118 131c0 17 66 49 79 51c48 -85 64 -106 82 -106c9 0 13 4 13 13c0 69 -61 142 -142 177v16c49 35 75 52 79 52c25 -10 37 -14 40 -14c18 0 36 34 36 66
c0 38 -32 75 -66 75c-29 0 -34 -11 -46 -94c-7 -22 -22 -33 -45 -33c-17 0 -26 10 -26 31c0 87 99 172 193 172c50 0 100 -61 100 -112z" />
    <glyph glyph-name="four" unicode="4" horiz-adv-x="350" 
d="M329 234c0 -3 -12 -14 -35 -33c-47 -38 -47 -39 -49 -170c-27 -13 -57 -26 -91 -39c-3 7 -6 42 -8 103c-2 53 -10 80 -24 80s-58 -3 -84 -4c-29 0 -43 10 -43 29l53 88c58 96 58 96 89 177c30 67 39 72 149 98c8 -6 9 -11 9 -20l-28 -273c0 -11 4 -16 11 -16l51 -1v-19z
M163 360c-9 -12 -32 -47 -68 -105c17 -3 34 -4 51 -4c10 17 16 54 17 109z" />
    <glyph glyph-name="five" unicode="5" horiz-adv-x="356" 
d="M330 465c0 -21 -48 -56 -78 -56l-88 14c-7 -11 -20 -68 -20 -88v-44c2 -4 6 -6 12 -6c7 1 40 8 50 10c66 0 110 -47 110 -117c0 -75 -128 -186 -208 -186c-45 0 -105 73 -105 127c0 23 38 49 58 49c52 -87 64 -104 91 -104c33 0 64 29 64 59c0 51 -54 86 -100 86
c-19 0 -25 -2 -60 -13h-15c0 4 -2 8 -4 13c1 11 6 68 7 93c-2 23 -3 39 -3 48c0 93 48 186 108 186c0 -3 104 -36 166 -46c10 -3 15 -11 15 -25z" />
    <glyph glyph-name="six" unicode="6" horiz-adv-x="350" 
d="M314 264c0 -143 -117 -272 -248 -272c-43 0 -69 56 -69 146c0 21 5 60 15 115c43 239 111 359 204 359l18 -4c2 -6 3 -13 4 -20c-67 -54 -96 -104 -96 -197c116 0 172 -43 172 -127zM197 231c0 59 -26 91 -72 91c-3 -15 -24 -163 -24 -175c0 -45 16 -86 34 -86
c34 0 62 83 62 170z" />
    <glyph glyph-name="seven" unicode="7" horiz-adv-x="350" 
d="M376 510c0 -6 -7 -16 -20 -31c-33 -36 -34 -37 -75 -133c-67 -158 -93 -256 -117 -435c-1 -7 -22 -24 -62 -50c-13 15 -19 30 -19 47c0 57 15 135 45 234l72 237c-52 14 -53 14 -108 61c-6 0 -15 -13 -27 -38s-23 -38 -33 -38c-19 0 -28 11 -28 33c0 54 128 160 188 163
c33 -43 44 -55 65 -55c91 37 94 38 95 38c8 0 24 -24 24 -33z" />
    <glyph glyph-name="eight" unicode="8" horiz-adv-x="350" 
d="M310 429c0 -46 -19 -90 -56 -131c-13 -14 -19 -24 -19 -29c49 -57 55 -64 55 -88c0 -80 -105 -189 -183 -189c-56 0 -103 45 -103 98c0 21 11 49 34 84l35 54c0 -5 -1 -8 -2 -8c-9 0 -46 88 -46 106c0 56 41 107 123 154c0 33 45 59 99 59c30 0 63 -58 63 -110zM207 409
c0 21 -9 31 -26 31c-8 0 -53 -27 -53 -69c0 -17 29 -52 43 -52c21 0 36 50 36 90zM183 118c0 26 -29 62 -51 63c-17 -21 -25 -43 -25 -68c0 -26 19 -49 40 -49c18 0 36 27 36 54z" />
    <glyph glyph-name="nine" unicode="9" horiz-adv-x="350" 
d="M321 398c0 -71 -44 -244 -85 -331c-43 -91 -90 -137 -142 -137c-9 0 -16 3 -21 8v16c35 20 93 150 93 168v22c-65 0 -165 22 -165 129c0 134 127 273 251 273c46 0 69 -49 69 -148zM207 379c0 59 -8 88 -25 88c-28 0 -64 -75 -64 -160c0 -56 21 -86 64 -91
c11 28 25 121 25 163z" />
    <glyph glyph-name="colon" unicode=":" horiz-adv-x="236" 
d="M185 320c-13 -19 -63 -56 -78 -56c-48 0 -57 46 -57 97c37 19 69 31 98 35c4 -47 9 -57 37 -76zM155 40c-13 -19 -63 -56 -78 -56c-48 0 -57 46 -57 97c37 19 69 31 98 35c4 -47 9 -57 37 -76z" />
    <glyph glyph-name="semicolon" unicode=";" horiz-adv-x="236" 
d="M185 320c-13 -19 -63 -56 -78 -56c-48 0 -57 46 -57 97c37 19 69 31 98 35c4 -47 9 -57 37 -76zM185 174c-7 -20 -18 -42 -31 -65l-36 -63c-39 -68 -51 -108 -62 -158c-7 -15 -8 -15 -62 -21c1 92 10 112 80 278z" />
    <glyph glyph-name="less" unicode="&#x3c;" horiz-adv-x="617" 
d="M254 363c0 -9 -1 -13 -25 -91c-5 -3 -31 -14 -76 -31c-7 4 -10 9 -10 15c0 10 3 24 9 43s9 33 9 43c0 15 -4 22 -12 22c-23 0 -48 -123 -48 -182c0 -80 13 -120 40 -120c13 0 25 12 73 74c26 -21 31 -26 31 -33c0 -38 -108 -107 -159 -107c-65 0 -83 52 -83 149
c0 169 80 282 208 282c23 0 43 -30 43 -64zM598 387c-7 -35 -27 -128 -60 -280l19 -4l21 10l14 -17c-3 -29 -86 -107 -115 -107c-22 0 -48 36 -48 67c0 29 8 70 24 124c16 55 24 96 24 125c0 4 -1 10 -4 19c-55 -30 -86 -73 -93 -128c-1 -16 -5 -60 -12 -131
c-11 -42 -45 -66 -104 -71c-2 2 -5 6 -9 12c8 89 30 254 69 527c7 48 64 110 158 145c5 -8 9 -15 10 -20c0 -4 -5 -11 -15 -21c-31 -26 -40 -33 -65 -160c-13 -64 -20 -115 -22 -153c97 88 136 117 162 117c16 0 46 -37 46 -54z" />
    <glyph glyph-name="equal" unicode="=" horiz-adv-x="515" 
d="M483 386l-13 -96h-444l13 96h444zM483 206l-13 -96h-444l13 96h444z" />
    <glyph glyph-name="greater" unicode="&#x3e;" horiz-adv-x="615" 
d="M254 363c0 -9 -1 -13 -25 -91c-5 -3 -31 -14 -76 -31c-7 4 -10 9 -10 15c0 10 3 24 9 43s9 33 9 43c0 15 -4 22 -12 22c-23 0 -48 -123 -48 -182c0 -80 13 -120 40 -120c13 0 25 12 73 74c26 -21 31 -26 31 -33c0 -38 -108 -107 -159 -107c-65 0 -83 52 -83 149
c0 169 80 282 208 282c23 0 43 -30 43 -64zM595 378c0 -73 -47 -145 -113 -171c42 -117 42 -117 53 -117s20 3 27 9c4 -8 6 -15 6 -21c0 -27 -61 -86 -89 -86c-25 0 -43 35 -97 183c-6 -9 -7 -23 -10 -95c-4 -53 -6 -54 -97 -91c-2 0 -6 4 -15 11c0 37 0 38 43 414
c15 103 35 181 59 234c32 14 62 21 90 21c9 0 10 -2 10 -15l-54 -237l7 -10c10 15 74 32 108 32c48 0 72 -20 72 -61zM498 355c0 21 -7 32 -20 32c-48 0 -89 -88 -89 -129c2 -1 4 -1 6 -2c28 14 28 14 29 14c12 -4 31 -9 36 -10c20 0 38 50 38 95z" />
    <glyph glyph-name="question" unicode="?" horiz-adv-x="295" 
d="M242 589c0 -70 -22 -117 -99 -215c-23 -29 -34 -48 -34 -59c0 -17 35 -42 104 -75c-40 -44 -62 -66 -66 -66c-48 0 -129 73 -129 116c0 8 10 27 31 58c64 95 90 166 90 245c0 11 -4 18 -13 22c-30 -24 -40 -49 -40 -98c-30 -18 -59 -28 -86 -29l7 52c7 47 22 70 79 110
c34 24 62 36 85 36c43 0 71 -38 71 -97zM201 39c-53 -29 -83 -44 -90 -44c-33 0 -59 42 -59 91c39 30 70 45 93 45c5 0 9 -10 11 -29c4 -16 11 -25 45 -63z" />
    <glyph glyph-name="at" unicode="@" horiz-adv-x="795" 
d="M384 233c56 0 99 48 99 110c0 45 -29 77 -71 77c-52 0 -99 -52 -99 -110c0 -47 27 -77 71 -77zM512 456l10 48h83l-47 -226c-3 -16 -5 -28 -5 -36c0 -12 4 -18 13 -18c63 0 93 86 93 150c0 140 -96 226 -244 226c-151 0 -255 -107 -255 -265c0 -162 104 -263 270 -263
c71 0 132 21 182 63h85c-67 -95 -161 -142 -284 -142c-203 0 -347 142 -347 342c0 197 151 344 352 344c183 0 320 -118 320 -280c0 -159 -128 -264 -234 -264c-33 0 -49 15 -50 46l-2 1c-28 -31 -59 -47 -92 -47c-86 0 -150 69 -150 160c0 123 82 218 190 218
c49 0 86 -19 112 -57z" />
    <glyph glyph-name="A" unicode="A" horiz-adv-x="589" 
d="M537 23c-36 -19 -70 -29 -102 -32c-46 142 -129 312 -166 312c-3 -4 -8 -15 -15 -32c-83 -195 -162 -293 -237 -293c-14 0 -21 6 -21 17c0 16 5 36 15 61c13 -7 24 -11 33 -11c37 0 180 246 180 275c0 11 -42 24 -62 24s-36 -5 -47 -15l-15 15c13 28 47 42 101 42
c23 0 40 -4 53 -12c10 5 125 181 125 193v71c40 26 76 41 109 45c2 -101 8 -204 17 -309zM396 255c0 42 0 42 -17 229l-57 -83c-5 -7 -14 -22 -26 -45l65 -56c1 -1 2 -2 35 -45z" />
    <glyph glyph-name="B" unicode="B" horiz-adv-x="723" 
d="M687 502c0 -54 -35 -103 -107 -140c68 -89 94 -139 94 -222c0 -85 -68 -157 -148 -157c-103 0 -218 123 -218 232c0 21 15 33 80 83c9 -3 13 -9 14 -17c0 -128 76 -230 159 -230c5 16 8 26 8 29c0 66 -77 217 -141 240c-74 13 -78 14 -97 36c-18 -28 -36 -77 -55 -146
c-44 -162 -85 -216 -176 -216c-71 0 -89 21 -89 116c15 0 17 0 53 -23c26 -15 42 -23 49 -23c63 0 120 264 120 505c-19 0 -128 -42 -208 -91c0 45 6 54 34 73c120 81 254 127 375 127c147 0 253 -75 253 -176zM581 464c0 71 -90 129 -193 129c-17 0 -27 -2 -32 -6
c-4 -3 -8 -43 -13 -118c9 3 18 5 28 5c45 0 100 -22 167 -66c20 0 43 30 43 56z" />
    <glyph glyph-name="C" unicode="C" horiz-adv-x="390" 
d="M349 659c0 -104 -6 -138 -24 -146c-45 -22 -73 -33 -83 -33c-4 0 -6 2 -6 5c11 51 13 66 13 111c0 12 -10 28 -19 28c-49 0 -96 -183 -96 -352c0 -131 32 -186 109 -186c23 0 51 14 86 43l11 -25c-3 -42 -109 -116 -151 -116c-125 0 -187 77 -187 230
c0 327 95 468 320 468c18 0 27 -9 27 -27z" />
    <glyph glyph-name="D" unicode="D" horiz-adv-x="519" 
d="M480 263c0 -153 -126 -275 -290 -275c-112 0 -197 23 -197 30c9 0 17 30 71 275c33 149 45 161 162 215c-17 25 -88 57 -212 94c-8 3 -12 6 -12 9c0 15 73 70 100 81c208 -27 378 -220 378 -429zM375 214c0 86 -66 233 -123 272c-47 -47 -115 -333 -115 -391
c0 -18 94 -34 168 -34c39 0 70 75 70 153z" />
    <glyph glyph-name="E" unicode="E" horiz-adv-x="422" 
d="M406 135c-7 -53 -133 -144 -196 -144c-45 0 -92 34 -143 103c-48 65 -72 121 -72 169c0 68 83 124 175 126c-43 49 -64 95 -64 138c0 72 95 152 182 152c29 0 88 -72 88 -107c0 -8 -20 -40 -27 -40c-1 1 -4 2 -8 3c-6 38 -56 92 -89 92c-23 0 -34 -17 -34 -51
c0 -25 18 -64 55 -118l56 -82c0 -14 -52 -62 -65 -62c-61 18 -62 18 -63 18c-26 0 -61 -30 -61 -59c0 -57 88 -200 133 -205c84 65 90 69 123 69c1 0 5 -1 10 -2z" />
    <glyph glyph-name="F" unicode="F" horiz-adv-x="428" 
d="M398 371l-14 -47c-5 -18 -12 -32 -21 -42c-24 9 -43 13 -58 13l-30 -2c39 -119 59 -197 59 -234c0 -100 -60 -168 -148 -168c-68 0 -122 75 -122 163c0 31 5 52 16 65h9c9 -57 80 -176 114 -176c9 0 13 11 18 47c0 65 -59 246 -89 300l-149 -3c-4 0 -6 2 -6 6
c0 7 17 36 52 87h76c-26 62 -39 101 -39 117c0 97 73 197 148 197c77 0 178 -100 178 -177c0 -24 -28 -76 -44 -76c-5 0 -16 18 -34 53c-56 111 -89 152 -122 152c-15 0 -22 -11 -22 -33c0 -61 24 -118 75 -230h85c23 0 46 -4 68 -12z" />
    <glyph glyph-name="G" unicode="G" horiz-adv-x="489" 
d="M470 467c-20 -90 -28 -145 -56 -393c-15 -129 -20 -137 -84 -178c-33 -22 -58 -33 -74 -33c-32 0 -69 52 -69 97c0 41 33 103 57 108l3 -4c0 -113 6 -138 31 -140l9 6c18 61 24 117 24 213c-67 -52 -120 -78 -159 -78c-91 0 -149 98 -149 248c0 210 133 371 308 371
c48 0 55 -9 106 -105c-29 -33 -82 -70 -104 -70l-7 9c0 65 -46 97 -80 97c-65 0 -103 -94 -103 -259c0 -93 51 -197 99 -197c28 0 54 44 113 186c21 51 36 83 44 94c38 15 68 24 91 28z" />
    <glyph glyph-name="H" unicode="H" horiz-adv-x="635" 
d="M602 676c-54 -242 -81 -426 -81 -553c0 -12 8 -32 20 -34l34 23l10 -18c-3 -23 -100 -107 -125 -107c-22 0 -65 50 -68 78c0 59 1 78 8 147l13 120c-13 -4 -48 -6 -105 -6c-51 0 -58 -14 -65 -104c-7 -97 -9 -119 -22 -178c-35 -37 -65 -55 -92 -55
c-40 0 -120 68 -123 106c34 43 54 64 61 64c49 -89 50 -90 55 -91c6 41 14 135 24 280c8 111 20 204 35 281c-33 -3 -42 -10 -68 -31c-4 -30 -22 -69 -50 -69c-23 0 -44 19 -44 40c0 15 6 26 19 33c41 61 100 74 267 74c9 0 13 -3 13 -10c0 -17 -6 -49 -18 -97
c-32 -118 -35 -137 -36 -183c9 6 40 9 92 9c63 0 65 6 68 52c4 69 11 89 39 151l12 39c5 17 14 26 25 29l95 24z" />
    <glyph glyph-name="I" unicode="I" horiz-adv-x="453" 
d="M398 629c0 -228 -5 -316 -25 -412c-31 -151 -91 -227 -180 -227c-65 0 -134 55 -173 138l14 13c27 -5 52 -10 75 -16c24 -40 74 -85 98 -85c29 0 64 180 64 392c0 96 -4 148 -12 157c-56 -32 -63 -42 -172 -180c-3 -3 -25 -12 -66 -27l-10 14c7 100 256 283 366 283
c14 0 21 -17 21 -50z" />
    <glyph glyph-name="J" unicode="J" horiz-adv-x="382" 
d="M339 594c0 -481 -75 -721 -225 -721c-63 0 -116 68 -116 131c0 67 67 203 131 270c-1 9 -17 14 -47 14c-8 0 -31 -2 -70 -5l-8 12c4 12 51 55 65 59c11 3 26 5 44 5h85c8 10 14 108 14 166c0 36 -3 58 -9 67c-48 -6 -104 -63 -118 -121c-23 -21 -39 -31 -50 -31
c-20 0 -34 15 -34 38c0 61 224 201 322 201c10 0 16 -35 16 -85zM201 250c0 14 -6 21 -18 21c-38 0 -97 -187 -97 -235c0 -46 14 -81 43 -105h4l20 13c32 63 48 165 48 306z" />
    <glyph glyph-name="K" unicode="K" horiz-adv-x="627" 
d="M610 671c-10 -26 -10 -26 -30 -26c-44 0 -69 -54 -189 -316c0 -8 106 -219 157 -254c12 0 21 13 30 46l17 -19c-9 -82 -40 -110 -117 -110c-50 0 -74 41 -150 181c-28 53 -44 79 -49 80c-5 -18 -6 -21 -35 -176c-18 -57 -59 -85 -124 -85c-74 0 -122 36 -122 92
c0 16 26 83 43 86c14 -10 16 -12 16 -53c2 -55 24 -82 72 -82c19 0 22 21 26 127c32 358 32 361 32 430c0 13 -18 20 -55 20l-110 -33l-11 10c3 23 125 87 161 87c5 -1 86 -10 87 -10c9 0 24 5 45 15c13 -1 21 -6 24 -15c-27 -30 -29 -60 -44 -344l17 13c13 0 32 31 59 93
c81 190 141 263 232 263c12 0 18 -7 18 -20z" />
    <glyph glyph-name="L" unicode="L" horiz-adv-x="561" 
d="M539 144c-14 -52 -121 -156 -167 -156c-40 0 -52 5 -148 50c-45 -38 -84 -57 -117 -57c-60 0 -105 33 -105 82c0 69 61 111 182 124c11 7 25 56 40 145c-21 -3 -56 -4 -105 -4c-48 0 -82 7 -103 22c54 70 76 92 94 98c66 -27 68 -27 126 -27c7 9 18 40 34 95
c36 125 82 177 169 177c47 0 85 -46 85 -100c0 -81 -40 -148 -121 -202c-13 -7 -31 -17 -54 -30c-17 -86 -53 -197 -60 -197c0 -15 112 -62 145 -62c28 0 40 9 91 56zM460 605c0 29 -8 43 -23 43c-22 0 -27 -8 -27 -23c-19 -45 -51 -184 -51 -187c55 26 101 100 101 167z
M170 70c0 18 -48 46 -71 46c-18 0 -27 -6 -27 -18c0 -35 25 -63 56 -63c20 0 42 16 42 35z" />
    <glyph glyph-name="M" unicode="M" horiz-adv-x="806" 
d="M765 664c-77 -290 -97 -388 -97 -499c0 -79 17 -118 51 -118c1 0 8 1 20 3c4 0 9 -2 14 -5c-5 -33 -38 -50 -98 -50c-80 0 -107 35 -107 137c0 27 8 100 25 217c-19 -25 -36 -60 -51 -103l-38 -112c-7 -35 -17 -72 -31 -110c-5 -13 -65 -33 -99 -37
c-15 23 -23 74 -23 151c0 17 5 60 14 128l38 278c0 57 0 57 -10 57c-34 0 -119 -263 -119 -369c0 -207 0 -213 -14 -221c-42 -18 -74 -27 -95 -27c-17 0 -30 56 -30 120c0 32 5 68 14 108c32 129 39 159 39 229c0 121 -13 181 -40 181c-18 0 -41 -36 -70 -107
c-4 -11 -7 -16 -9 -17c-17 0 -45 31 -45 49c0 71 89 139 178 139c42 0 62 -21 79 -79c5 -18 10 -27 15 -27c51 60 128 113 185 113c23 0 35 -24 35 -73c0 -62 -3 -119 -10 -171l-14 -109c-9 -35 -17 -81 -17 -98c104 250 231 440 295 440c10 0 15 -6 15 -18z" />
    <glyph glyph-name="N" unicode="N" horiz-adv-x="617" 
d="M577 608c0 -35 -15 -100 -66 -293c-14 -62 -21 -116 -21 -163c0 -60 8 -90 25 -90c1 1 10 5 27 11c2 0 22 -5 22 -10c-32 -64 -55 -93 -116 -93c-39 0 -87 73 -87 119c0 57 25 230 50 331l32 136c0 6 -1 7 -6 8c-88 -53 -155 -180 -198 -422c-9 -47 -17 -88 -26 -121
c-2 -7 -71 -34 -86 -34c-7 0 -11 3 -11 10l32 410c0 79 -28 220 -46 220c-8 0 -22 -22 -41 -66s-30 -66 -34 -66c-14 0 -29 14 -29 26c0 78 107 198 182 198c55 0 72 -72 72 -259c0 -10 1 -17 4 -22c126 152 197 210 260 210c41 0 61 -13 61 -40z" />
    <glyph glyph-name="O" unicode="O" horiz-adv-x="593" 
d="M536 582c0 -13 -19 -31 -58 -55c37 -45 56 -119 56 -221c0 -172 -142 -320 -309 -320c-68 0 -223 127 -223 294c0 92 38 174 113 247c11 10 52 40 124 91c-3 8 -7 20 -7 21c0 26 71 68 90 68c6 0 18 -9 37 -27l37 -36c46 -34 59 -37 109 -47c21 -4 31 -9 31 -15zM456 304
c0 114 -31 201 -72 221c-50 15 -61 19 -99 45c-5 1 -9 2 -11 2c-7 0 -22 -8 -45 -25c-68 -49 -102 -119 -102 -208c0 -130 104 -261 207 -261c72 0 122 90 122 226z" />
    <glyph glyph-name="P" unicode="P" horiz-adv-x="542" 
d="M501 504c0 -111 -96 -228 -196 -228c-19 0 -34 5 -43 14c-28 -114 -51 -164 -88 -196c22 8 36 10 71 10l137 -37c15 0 16 0 77 13c7 0 11 -1 11 -3c0 -34 -76 -72 -185 -93l-159 26l-88 -18c-13 0 -23 5 -23 12c1 1 2 3 2 7c24 24 73 88 84 118c10 25 20 85 31 180
c15 132 39 189 103 240c25 15 38 26 38 33c0 12 -50 27 -89 27c-60 0 -90 -33 -90 -99c0 -8 1 -13 9 -82c0 -6 -29 -62 -76 -62c-17 23 -25 56 -25 101c0 138 125 236 279 236c101 0 220 -105 220 -199zM391 428c0 51 -39 135 -72 135c-24 0 -53 -185 -53 -212l2 -13
c9 4 17 6 23 6c22 -7 33 -9 37 -9c32 0 63 46 63 93z" />
    <glyph glyph-name="Q" unicode="Q" horiz-adv-x="573" 
d="M529 -51c-2 -2 -6 -3 -11 -4c-16 0 -34 19 -58 68c-19 38 -34 57 -45 57c9 0 14 -1 14 -4c0 -14 -153 -80 -183 -80c-131 0 -240 155 -240 301c0 132 57 222 190 307c5 3 8 6 9 8c-12 18 -13 22 -13 24c0 12 81 76 96 76c3 0 19 -12 47 -36c47 -40 65 -48 134 -65
c15 -4 23 -11 23 -22c0 -9 -1 -10 -50 -54c51 -35 76 -97 76 -187c0 -42 -5 -80 -14 -113c-15 -34 -22 -58 -22 -72c0 -11 8 -34 23 -69c16 -35 24 -60 24 -76v-59zM438 261c0 82 -38 227 -75 254c-18 13 -103 48 -120 48c-37 0 -68 -29 -93 -88c-21 -50 -32 -95 -32 -136
c0 -112 104 -248 214 -248c10 0 25 6 46 18c-88 79 -88 79 -88 85c0 15 59 76 74 76c3 0 24 -14 63 -41c7 13 11 24 11 32z" />
    <glyph glyph-name="R" unicode="R" horiz-adv-x="582" 
d="M547 31c0 -34 -63 -49 -110 -49c-39 0 -71 26 -96 77c-32 70 -82 173 -149 310c16 16 85 56 100 56c57 -26 58 -27 64 -27c40 0 80 36 80 72c0 65 -47 127 -98 127c-99 0 -160 -101 -160 -266c0 -119 -8 -146 -53 -272c-17 -47 -41 -70 -74 -70c-7 0 -18 2 -35 5
c-10 31 -15 53 -15 64c0 63 9 123 27 179l45 140c5 16 14 39 27 70c15 27 23 53 23 77c0 27 -7 44 -28 65c-1 0 -2 0 -25 -39c-15 9 -23 14 -23 15c0 40 37 130 84 130c19 -27 33 -69 41 -125c3 -1 6 -4 9 -7c72 75 141 112 207 112c87 0 159 -61 159 -139
c0 -99 -79 -175 -199 -194l69 -167c37 -90 64 -135 81 -135c2 0 7 2 30 13c7 0 19 -14 19 -22z" />
    <glyph glyph-name="S" unicode="S" horiz-adv-x="385" 
d="M365 597c0 -17 -11 -40 -32 -67c-37 78 -51 94 -88 94c-28 0 -42 -20 -42 -61c0 -35 10 -55 100 -236c23 -49 35 -95 35 -140c0 -129 -76 -204 -208 -204c-73 0 -130 101 -130 231c0 55 12 73 64 96c0 -187 34 -280 109 -280c28 0 47 30 47 74c0 61 -6 76 -105 260
c-23 49 -34 96 -34 140c0 98 96 184 205 184c38 0 79 -53 79 -91z" />
    <glyph glyph-name="T" unicode="T" horiz-adv-x="451" 
d="M434 142c-24 -90 -120 -156 -204 -156c-88 0 -164 95 -164 196c0 108 61 224 183 349c-23 15 -159 56 -178 56c-5 0 -8 -1 -62 -20c-11 0 -17 5 -17 15c0 39 96 96 154 96c37 0 84 -8 140 -23l138 -38c0 -39 -18 -74 -44 -93c-88 -25 -117 -45 -145 -134
c-15 -48 -23 -97 -23 -147c0 -109 37 -176 97 -176c29 0 71 34 81 65z" />
    <glyph glyph-name="U" unicode="U" horiz-adv-x="459" 
d="M459 717c-60 -269 -90 -468 -90 -599c0 -29 6 -44 17 -44c3 0 12 1 27 3c2 -8 3 -13 3 -15c0 -28 -75 -79 -106 -79c-34 0 -38 20 -61 131l-59 -86c-25 -28 -55 -42 -91 -42c-62 0 -93 67 -93 200c0 46 6 115 17 206c12 92 18 161 18 207c-3 15 -7 37 -7 40
c0 9 36 26 108 53c20 -31 25 -52 25 -98l-34 -473c0 -40 5 -53 24 -54c59 96 95 229 159 561c59 45 106 75 143 89z" />
    <glyph glyph-name="V" unicode="V" horiz-adv-x="499" 
d="M495 427c0 -95 -75 -251 -159 -371c-47 -67 -48 -67 -97 -67s-95 77 -95 152l20 311c0 52 -4 155 -33 155c-24 0 -38 -30 -88 -154h-15c-21 25 -31 48 -31 69c0 76 120 168 204 168c65 0 97 -78 97 -235v-164l-14 -142c0 -5 2 -11 5 -16c72 92 122 223 122 320
c0 47 -17 84 -50 111v15c5 3 12 5 20 5c95 0 114 -94 114 -157z" />
    <glyph glyph-name="W" unicode="W" horiz-adv-x="705" 
d="M690 520c0 -204 -66 -359 -215 -508c-17 -17 -32 -25 -46 -25c-13 0 -27 4 -42 13c-28 260 -30 280 -30 337c-84 -163 -116 -249 -116 -307c-21 -16 -78 -41 -97 -41c-9 0 -14 3 -15 9l-30 497c-59 -98 -64 -106 -82 -122c-15 14 -22 30 -22 47c0 7 7 21 21 41
c35 48 52 78 91 165c63 40 100 60 109 60c12 0 18 -8 18 -23l-3 -70l8 -248c1 -38 4 -65 8 -82c79 130 97 208 97 294c22 12 58 30 109 54c18 -37 29 -113 33 -229c5 -141 11 -225 16 -250c43 29 81 158 81 271c0 97 -20 170 -61 221c20 16 98 60 111 60
c29 0 57 -82 57 -164z" />
    <glyph glyph-name="X" unicode="X" horiz-adv-x="491" 
d="M466 656c0 -5 -2 -7 -44 -39c-5 -7 -22 -28 -50 -62c-19 -23 -107 -186 -107 -199c0 -39 56 -254 74 -276c8 -1 12 -1 14 -2c18 0 27 9 27 28c-8 26 -11 41 -11 42c0 16 11 36 33 61c15 -8 32 -54 32 -73c0 -74 -69 -150 -135 -150c-59 0 -118 90 -137 210
c-25 -41 -54 -106 -89 -196l2 -21c0 -13 -7 -19 -22 -19c-31 0 -48 10 -50 29l140 301l-32 160c-13 64 -29 116 -48 155c-28 -6 -31 -11 -44 -36c-11 8 -16 18 -16 31c0 31 77 88 116 88c61 0 88 -56 126 -242c105 193 139 236 187 236c9 0 34 -18 34 -26z" />
    <glyph glyph-name="Y" unicode="Y" horiz-adv-x="508" 
d="M466 646c0 -130 -31 -356 -66 -479c-57 -229 -86 -293 -160 -293c-5 0 -8 2 -8 5l60 217c-6 -3 -19 -17 -39 -42c-17 -21 -31 -32 -40 -32c-40 0 -126 171 -126 266v190c0 39 -14 101 -25 112c-51 -91 -53 -93 -58 -93c-11 0 -16 17 -16 51c0 61 8 73 79 112
c39 21 64 32 75 32c44 0 66 -101 66 -302c0 -141 16 -225 47 -250c44 41 66 141 79 365c0 9 3 39 8 94c4 14 84 64 102 64c15 0 22 -6 22 -17z" />
    <glyph glyph-name="Z" unicode="Z" horiz-adv-x="558" 
d="M540 645c0 -11 -39 -59 -116 -146s-115 -132 -115 -136c0 -8 12 -15 127 -74c-2 -21 -66 -63 -94 -63c-19 0 -56 16 -111 47l-76 -75c7 -7 25 -13 53 -16c42 -11 66 -26 138 -77c45 -33 73 -49 83 -49c16 0 17 6 17 32l42 14c19 0 28 -9 28 -28c0 -39 -112 -89 -150 -89
c-35 0 -73 12 -115 35c-138 78 -154 87 -185 96c-30 3 -68 16 -68 26c0 4 2 8 7 13c136 105 174 140 174 155c-52 58 -54 60 -54 70c0 11 58 46 75 46c54 -30 54 -30 56 -30c20 0 100 91 110 122c-81 0 -86 0 -156 35c-54 28 -84 37 -119 37c-30 -60 -42 -67 -63 -67
c-13 0 -20 9 -20 27c0 52 105 134 166 134c29 0 72 -10 131 -29c57 -19 101 -28 133 -28c22 0 51 12 87 37c10 0 15 -6 15 -19z" />
    <glyph glyph-name="bracketleft" unicode="[" horiz-adv-x="556" 
d="M377 764l-13 -64h-63l-186 -721h102l-13 -64h-193l160 849h206z" />
    <glyph glyph-name="backslash" unicode="\" horiz-adv-x="382" 
d="M404 -43l-60 -20l-346 721l84 31z" />
    <glyph glyph-name="bracketright" unicode="]" horiz-adv-x="556" 
d="M377 764l-160 -849h-206l13 64h63l185 721h-101l13 64h193z" />
    <glyph glyph-name="asciicircum" unicode="^" horiz-adv-x="500" 
d="M401 731l-20 -11c-21 9 -61 25 -120 49c-23 -9 -64 -25 -123 -49l-20 11l142 109c18 -15 65 -51 141 -109z" />
    <glyph glyph-name="underscore" unicode="_" horiz-adv-x="525" 
d="M530 -138h-530v50h530v-50z" />
    <glyph glyph-name="grave" unicode="`" horiz-adv-x="210" 
d="M182 724l-27 -22l-139 61l48 48c3 0 42 -29 118 -87z" />
    <glyph glyph-name="a" unicode="a" 
d="M328 419c-39 -128 -56 -224 -56 -327c0 -27 8 -42 25 -47v-16c-28 -20 -53 -30 -76 -30c-30 0 -46 28 -47 84c-35 -54 -79 -81 -132 -81c-33 0 -35 18 -40 86c0 72 14 143 41 214c35 90 82 135 142 135c42 -34 42 -34 45 -34c4 0 5 0 91 30c5 -3 7 -7 7 -14zM193 290
c0 20 -28 57 -48 64c-34 -102 -51 -180 -51 -233v-37l16 -20c29 41 83 189 83 226z" />
    <glyph glyph-name="b" unicode="b" horiz-adv-x="322" 
d="M284 215c0 -100 -89 -216 -171 -216c-70 0 -110 50 -110 130c0 105 38 420 66 482c5 11 38 29 100 54l6 -9l-34 -201v-43c2 -3 5 -5 8 -5c4 0 4 0 68 30c33 0 67 -137 67 -222zM184 182c0 59 -34 157 -56 157c-9 -71 -14 -127 -14 -167c0 -50 17 -79 51 -86
c13 25 19 57 19 96z" />
    <glyph glyph-name="c" unicode="c" horiz-adv-x="271" 
d="M254 363c0 -9 -1 -13 -25 -91c-5 -3 -31 -14 -76 -31c-7 4 -10 9 -10 15c0 10 3 24 9 43s9 33 9 43c0 15 -4 22 -12 22c-23 0 -48 -123 -48 -182c0 -80 13 -120 40 -120c13 0 25 12 73 74c13 -11 20 -23 20 -36c0 -37 -105 -104 -148 -104c-65 0 -83 52 -83 149
c0 169 80 282 208 282c23 0 43 -30 43 -64z" />
    <glyph glyph-name="d" unicode="d" horiz-adv-x="335" 
d="M322 613l-51 -472c0 -36 0 -56 27 -62c0 -34 -2 -45 -45 -64c-24 -11 -47 -16 -69 -16c-8 0 -14 22 -17 66c-57 -42 -98 -63 -124 -63c-27 27 -50 95 -50 143c0 61 29 158 64 214c31 50 67 75 109 75c3 0 12 -12 27 -35c10 8 15 27 15 56v115c0 40 54 85 113 85zM201 349
c0 11 -2 21 -6 29l-25 1c-31 0 -70 -113 -70 -198c0 -40 18 -79 38 -85l39 126c16 52 24 94 24 127z" />
    <glyph glyph-name="e" unicode="e" horiz-adv-x="286" 
d="M265 373c0 -103 -130 -232 -153 -242c0 -43 26 -79 58 -79c10 0 28 5 54 16v-23c0 -24 -72 -49 -130 -49c-80 0 -97 83 -97 138c0 98 20 154 78 227c45 55 89 83 134 83c30 0 56 -34 56 -71zM188 349c0 25 -4 32 -18 32c-22 0 -56 -82 -63 -184c30 11 81 110 81 152z" />
    <glyph glyph-name="f" unicode="f" horiz-adv-x="241" 
d="M251 519c0 -79 -35 -191 -67 -202c-9 7 -9 10 -9 19c15 101 23 160 23 177c0 33 -6 54 -19 65c-24 -34 -50 -197 -50 -307c-4 -15 -5 -21 -5 -25c0 -1 0 -5 2 -9l80 1c4 -4 6 -9 6 -14c0 -8 -14 -30 -41 -65h-58l-43 -240l-71 -35c16 120 24 211 24 272c-1 1 -3 2 -5 2
c-3 0 -6 -1 -20 -4c-3 0 -5 1 -6 2c45 66 45 66 53 189c12 189 47 262 155 326c7 4 12 6 17 6c21 0 34 -74 34 -158z" />
    <glyph glyph-name="g" unicode="g" horiz-adv-x="350" 
d="M345 441c0 -13 -9 -46 -26 -98c-4 -20 -9 -81 -16 -182c-13 -204 -64 -276 -196 -276c-41 0 -64 17 -70 51c7 7 29 11 76 13c4 -14 12 -26 25 -37c30 14 56 65 56 111v43c-47 -43 -84 -64 -112 -64c-69 0 -86 75 -86 173c0 117 129 272 226 272c6 0 38 -12 47 -17l24 12
c16 8 27 12 34 12c12 0 18 -4 18 -13zM221 365c-15 11 -24 16 -27 16c-29 0 -95 -146 -95 -200c0 -38 22 -86 49 -95c30 74 54 167 73 279z" />
    <glyph glyph-name="h" unicode="h" horiz-adv-x="363" 
d="M343 387c-7 -35 -27 -128 -60 -280l19 -4l21 10l14 -17c-3 -29 -86 -107 -115 -107c-22 0 -48 36 -48 67c0 29 8 70 24 124c16 55 24 96 24 125c0 4 -1 10 -4 19c-55 -30 -86 -73 -93 -128c-1 -16 -5 -60 -12 -131c-11 -42 -45 -66 -104 -71c-2 2 -5 6 -9 12
c8 89 30 254 69 527c7 48 64 110 158 145c5 -8 9 -15 10 -20c0 -4 -5 -11 -15 -21c-31 -26 -40 -33 -65 -160c-13 -64 -20 -115 -22 -153c97 88 136 117 162 117c16 0 46 -37 46 -54z" />
    <glyph glyph-name="i" unicode="i" horiz-adv-x="183" 
d="M167 520c-19 -13 -40 -20 -61 -20c-25 0 -28 10 -29 63c0 12 3 18 8 19c18 3 43 7 76 13c-3 -10 -5 -19 -5 -26zM177 395c0 -5 -3 -7 -8 -7c-13 0 -16 -3 -18 -17c-42 -257 -42 -258 -42 -279c0 -17 9 -40 26 -69c0 -6 -22 -14 -68 -29h2c-34 0 -64 48 -64 93
c0 60 21 212 45 320c3 9 81 34 102 34z" />
    <glyph glyph-name="j" unicode="j" horiz-adv-x="183" 
d="M157 414c-2 -29 -45 -367 -58 -447c-1 -11 -51 -41 -73 -46l-60 -13l37 66l37 327c0 22 -10 37 -24 37c2 0 3 -1 3 -3c0 -3 -5 -4 -16 -4c-3 3 -4 9 -4 18c0 16 75 60 155 91c2 -8 3 -17 3 -26zM147 520c-19 -13 -40 -20 -61 -20c-25 0 -28 10 -29 63c0 12 3 18 8 19
c18 3 43 7 76 13c-3 -10 -5 -19 -5 -26z" />
    <glyph glyph-name="k" unicode="k" horiz-adv-x="360" 
d="M338 378c0 -73 -47 -145 -113 -171c42 -117 42 -117 53 -117s20 3 27 9c4 -8 6 -15 6 -21c0 -27 -61 -86 -89 -86c-25 0 -43 35 -97 183c-6 -9 -7 -23 -10 -95c-4 -53 -6 -54 -97 -91c-2 0 -6 4 -15 11c0 37 0 38 43 414c15 103 35 181 59 234c32 14 62 21 90 21
c9 0 10 -2 10 -15l-54 -237l7 -10c10 15 74 32 108 32c48 0 72 -20 72 -61zM241 355c0 21 -7 32 -20 32c-48 0 -89 -88 -89 -129c2 -1 4 -1 6 -2c28 14 28 14 29 14s5 -1 36 -10c20 0 38 50 38 95z" />
    <glyph glyph-name="l" unicode="l" horiz-adv-x="214" 
d="M205 621c-26 -105 -84 -447 -84 -523c0 -15 6 -22 19 -22s24 7 32 22c5 -4 8 -9 11 -14c0 -34 -59 -93 -93 -93c-46 0 -69 25 -69 74c0 36 50 453 80 553c6 7 41 19 104 36v-33z" />
    <glyph glyph-name="m" unicode="m" horiz-adv-x="526" 
d="M499 357l-51 -270c0 -33 15 -41 34 -41v-18c-31 -25 -59 -37 -86 -37c-33 0 -49 26 -49 77c0 39 6 62 51 240l-3 27c-34 -7 -68 -84 -134 -300c-3 -8 -72 -44 -103 -44c-2 2 -2 2 -2 11l58 318c0 2 -4 7 -11 17c-63 -51 -100 -157 -112 -319c-57 -27 -58 -27 -92 -27
c0 183 10 270 62 409c3 7 29 17 80 30c4 -3 6 -6 6 -11c-6 -34 -6 -34 -6 -35c0 -5 1 -10 3 -16c11 3 30 16 59 39c25 20 50 30 77 30c18 0 29 -10 33 -29v-50c0 -11 4 -17 13 -17c65 70 81 86 131 86c25 0 38 -15 40 -44z" />
    <glyph glyph-name="n" unicode="n" horiz-adv-x="359" 
d="M336 384c0 -38 -11 -93 -34 -165c-22 -72 -33 -124 -33 -157c0 -7 3 -10 9 -10c4 0 9 1 23 5c6 0 9 -3 10 -10c-18 -26 -65 -55 -94 -55c-36 0 -54 22 -54 66c0 14 6 43 18 86c47 173 54 200 54 220l-15 2c-27 0 -78 -99 -94 -169c-2 -9 -14 -67 -35 -174
c-20 -20 -43 -26 -95 -26l55 413c3 3 18 7 45 14l51 12c0 -49 0 -59 -4 -75c0 -5 2 -8 7 -8c11 0 24 8 37 23c31 35 59 54 103 54c31 0 46 -15 46 -46z" />
    <glyph glyph-name="o" unicode="o" horiz-adv-x="291" 
d="M266 205c0 -109 -93 -214 -189 -214c-40 0 -76 39 -76 81c0 135 25 271 57 301c13 12 95 57 115 57c50 0 93 -118 93 -225zM168 190c0 67 -16 133 -34 143c-18 -24 -28 -63 -29 -117l-3 -126c10 -6 20 -13 33 -19c15 0 33 79 33 119z" />
    <glyph glyph-name="p" unicode="p" horiz-adv-x="358" 
d="M335 364c0 -210 -77 -357 -187 -357c-10 0 -23 13 -39 39c-10 -51 -11 -89 -11 -139l-84 -24c-2 7 -3 15 -3 25c0 89 12 218 35 384c0 7 -5 11 -14 11c-5 0 -11 -1 -16 -3c-1 5 -2 10 -2 15c0 22 77 77 160 117c-2 -40 -3 -53 -3 -67c106 65 109 65 122 65
c28 0 42 -22 42 -66zM234 335l-16 4c-57 -37 -102 -141 -102 -239c12 7 28 17 49 32c7 -4 14 -20 22 -48c15 37 47 155 47 251z" />
    <glyph glyph-name="q" unicode="q" horiz-adv-x="320" 
d="M304 398c-41 -227 -60 -376 -60 -461c0 -7 -68 -31 -84 -32c-8 2 -12 6 -12 12c0 9 14 98 21 131l-2 3c-1 3 -4 4 -10 4c5 0 7 -1 7 -3c0 -8 -78 -51 -90 -51c-36 0 -73 67 -73 129c0 173 101 293 254 304c7 0 11 -1 14 -4c-15 -15 -23 -31 -25 -49c19 17 37 29 56 38
c3 -5 4 -12 4 -21zM229 383c-78 -1 -134 -91 -134 -211c0 -23 14 -71 25 -78c23 15 41 47 52 95c31 142 32 146 57 194z" />
    <glyph glyph-name="r" unicode="r" horiz-adv-x="259" 
d="M251 387c0 -89 -19 -133 -82 -154c-3 3 -4 8 -4 15c0 6 4 34 9 74c0 11 -4 16 -13 16c-22 0 -28 -8 -43 -126c-9 -65 -13 -111 -13 -139c0 -14 6 -27 17 -38c-54 -30 -82 -45 -85 -45c-12 0 -37 44 -37 75l50 266c-3 15 -9 23 -17 23c-3 0 -9 -3 -20 -10l-1 3
c11 34 83 91 115 91c8 0 10 -5 25 -51c31 22 49 32 82 49c11 -8 17 -24 17 -49z" />
    <glyph glyph-name="s" unicode="s" horiz-adv-x="288" 
d="M266 378c0 -23 -20 -54 -59 -91c-25 51 -46 76 -61 76c-11 0 -17 -6 -17 -17c0 -23 45 -96 91 -142c19 -25 28 -49 28 -72c0 -82 -78 -152 -170 -152c-55 0 -82 31 -82 92c0 56 5 64 70 121c-17 33 -25 62 -25 89c0 61 90 161 147 161c22 0 78 -44 78 -65zM149 78
c0 34 -44 82 -81 104l-4 -80c0 -26 29 -64 53 -64c18 0 32 18 32 40z" />
    <glyph glyph-name="t" unicode="t" horiz-adv-x="233" 
d="M198 360c-44 -18 -45 -19 -48 -25c-17 -36 -25 -87 -25 -154v-69c5 -5 8 -7 11 -7c2 0 12 5 39 21h20c2 -2 3 -6 3 -11c0 -47 -88 -118 -140 -118c-19 0 -53 43 -53 66l42 261c-6 12 -14 22 -24 30c-4 5 -8 9 -11 14c3 7 11 17 22 29c26 28 29 34 41 134
c19 13 55 31 106 55c5 -9 7 -16 7 -21c-6 -17 -13 -58 -21 -122c8 -7 10 -7 66 -7l3 -3c0 -20 -32 -68 -38 -73z" />
    <glyph glyph-name="u" unicode="u" horiz-adv-x="329" 
d="M315 432l-51 -351l13 -33c0 -15 -76 -65 -94 -65c-12 0 -14 5 -22 66c-49 -49 -55 -55 -107 -55c-39 0 -50 20 -50 84c0 82 17 180 53 306c3 12 72 48 113 48c5 -9 7 -17 7 -24c-51 -186 -67 -272 -67 -334c5 -7 6 -8 12 -8c33 0 36 16 81 271c22 73 51 95 112 95z" />
    <glyph glyph-name="v" unicode="v" horiz-adv-x="320" 
d="M296 266c0 -127 -117 -279 -241 -279c-25 0 -50 28 -50 59l32 244l-14 94c0 15 75 48 95 48c7 0 13 -6 18 -18c6 -11 12 -17 18 -17c3 0 34 13 94 38c25 -17 48 -108 48 -169zM190 200c-2 114 -6 152 -36 152c-21 -102 -35 -195 -42 -279c46 14 78 98 78 127z" />
    <glyph glyph-name="w" unicode="w" horiz-adv-x="434" 
d="M418 312c0 -58 -18 -124 -53 -197c-41 -85 -87 -128 -138 -128c-17 0 -25 12 -52 61c-49 -36 -79 -54 -92 -54c-39 0 -78 53 -78 98c5 45 23 207 23 212c-1 8 -6 66 -6 67c0 21 2 26 90 57c11 -15 22 -46 31 -94l-32 -229c0 -20 5 -33 16 -40c41 67 45 101 45 245
c0 83 27 118 97 143c6 -3 9 -10 9 -21c0 -3 -1 -15 -3 -34c3 -5 7 -8 11 -8c-3 0 -5 0 -5 1c0 3 53 20 63 20c49 0 74 -33 74 -99zM336 264c0 24 -38 89 -59 100c-15 -83 -23 -149 -23 -200s9 -80 27 -88c37 94 55 157 55 188z" />
    <glyph glyph-name="x" unicode="x" horiz-adv-x="302" 
d="M303 464c0 -18 -19 -61 -58 -128l-57 -99c0 -19 29 -118 41 -146c3 -7 8 -12 16 -15c6 -2 9 -6 9 -12c0 -29 -66 -70 -111 -70c-5 9 -5 9 -46 108c-8 -9 -15 -25 -21 -47c-11 -45 -22 -58 -72 -63c-3 8 -5 16 -5 24c0 41 23 98 69 173c0 16 -34 140 -41 147
c-21 14 -25 17 -25 25c0 27 81 75 119 75c6 0 7 -1 45 -111c11 13 22 31 32 54c39 89 45 98 102 98c3 -8 2 -11 3 -13z" />
    <glyph glyph-name="y" unicode="y" horiz-adv-x="325" 
d="M303 442c-13 -69 -17 -110 -29 -269c-7 -88 -22 -171 -45 -250c-8 -24 -74 -63 -128 -63c-25 0 -47 45 -47 75c0 13 3 19 8 19c4 0 27 -17 68 -50c20 9 25 32 25 71l-2 70c-54 -42 -57 -44 -61 -44c-55 0 -83 42 -83 126c0 61 9 135 28 222c-6 4 -9 4 -21 4
c-2 3 -3 8 -3 15c0 23 76 71 107 71c14 0 34 -15 34 -27c-31 -84 -42 -150 -42 -267c0 -10 2 -21 7 -33c19 15 35 53 46 112c36 184 53 218 138 218z" />
    <glyph glyph-name="z" unicode="z" horiz-adv-x="325" 
d="M310 377l-84 -130c6 -8 8 -9 48 -15c-8 -28 -39 -65 -82 -65c-7 2 -10 2 -12 3c-20 0 -40 -19 -59 -57c27 -20 98 -39 136 -39c4 0 44 16 46 18l3 -14c-64 -83 -77 -91 -108 -91c-50 0 -161 34 -196 60l76 122c0 12 -17 19 -52 22v14c35 35 54 52 58 52c6 -1 21 -4 26 -4
c24 0 27 4 67 68c-5 5 -11 8 -16 8c-20 -4 -34 -7 -38 -7c-50 0 -90 16 -90 38c43 51 68 76 77 76c-10 0 -15 -1 -15 -2c0 -10 166 -41 215 -41v-16z" />
    <glyph glyph-name="braceleft" unicode="{" horiz-adv-x="416" 
d="M407 764l-12 -59h-49c-33 -8 -46 -21 -46 -46l-52 -203c-11 -43 -59 -86 -112 -92c44 -13 66 -39 66 -79l-64 -255c-2 -8 -3 -16 -3 -23c0 -27 13 -40 38 -41l57 -1l-11 -53h-89c-56 15 -77 35 -77 73c0 15 5 43 15 86c33 131 42 177 42 210c0 29 -22 59 -65 90
c54 14 79 38 94 86l46 224c14 41 65 75 124 83h98z" />
    <glyph glyph-name="bar" unicode="|" horiz-adv-x="382" 
d="M233 -34h-79v751h79v-751z" />
    <glyph glyph-name="braceright" unicode="}" horiz-adv-x="416" 
d="M367 304c-50 -11 -82 -40 -94 -85l-46 -224c-47 -76 -61 -81 -222 -83l12 58h49c36 12 46 23 46 46l52 204c9 39 59 85 112 91c-44 13 -66 40 -66 79c0 10 2 20 5 30c2 2 55 195 62 248c0 27 -13 41 -38 41h-58l12 55h89c38 0 77 -35 77 -72c0 -8 -3 -24 -8 -47l-29 -127
c-13 -60 -20 -101 -20 -124c0 -29 22 -59 65 -90z" />
    <glyph glyph-name="asciitilde" unicode="~" horiz-adv-x="617" 
d="M536 814l-48 -54c-21 -19 -43 -29 -64 -29c-17 0 -43 5 -77 15c-34 11 -59 16 -76 16c-16 0 -35 -11 -56 -33l-24 10c59 66 76 82 110 82c18 0 45 -5 80 -15s62 -15 80 -15c15 0 33 11 54 32z" />
    <glyph glyph-name="quotesinglbase" unicode="&#x201a;" horiz-adv-x="221" 
d="M185 174c-7 -20 -18 -42 -31 -65l-36 -63c-39 -68 -51 -108 -62 -158c-7 -15 -8 -15 -62 -21c1 92 10 112 80 278z" />
    <glyph glyph-name="florin" unicode="&#x192;" horiz-adv-x="512" 
d="M435 403l-13 -59h-94c-26 -62 -44 -129 -55 -200c-35 -229 -55 -346 -103 -346c-22 0 -71 78 -71 106c0 14 11 43 32 88c25 53 42 105 49 155c17 120 24 159 41 197h-53l15 59h59c22 90 59 166 112 227c41 47 72 72 95 75c19 0 39 -73 39 -118c0 -22 -8 -39 -23 -50
l-69 -51c-13 -14 -28 -42 -44 -83h83z" />
    <glyph glyph-name="quotedblbase" unicode="&#x201e;" horiz-adv-x="385" 
d="M355 174c-7 -20 -18 -42 -31 -65l-36 -63c-39 -68 -51 -108 -62 -158c-7 -15 -8 -15 -62 -21c1 92 10 112 80 278zM185 174c-7 -20 -18 -42 -31 -65l-36 -63c-39 -68 -51 -108 -62 -158c-7 -15 -8 -15 -62 -21c1 92 10 112 80 278z" />
    <glyph glyph-name="ellipsis" unicode="&#x2026;" horiz-adv-x="879" 
d="M805 40c-13 -19 -63 -56 -78 -56c-48 0 -57 46 -57 97c37 19 69 31 98 35c4 -47 9 -57 37 -76zM505 40c-13 -19 -63 -56 -78 -56c-48 0 -57 46 -57 97c37 19 69 31 98 35c4 -47 9 -57 37 -76zM205 40c-13 -19 -63 -56 -78 -56c-48 0 -57 46 -57 97c37 19 69 31 98 35
c4 -47 9 -57 37 -76z" />
    <glyph glyph-name="dagger" unicode="&#x2020;" horiz-adv-x="512" 
d="M48 385l16 100c39 -8 93 -13 162 -14l33 181l132 27l-49 -208c55 2 106 6 153 12l-20 -98c-26 1 -77 3 -154 5l-123 -507l-81 -23l93 530c-25 0 -79 -2 -162 -5z" />
    <glyph glyph-name="daggerdbl" unicode="&#x2021;" horiz-adv-x="512" 
d="M7 51l21 104c35 -6 86 -9 152 -9l44 254c-77 -1 -131 -4 -162 -9l21 100c16 -5 68 -7 156 -7l31 166l133 29l-49 -195c64 0 113 3 146 8l-20 -103c-12 0 -61 3 -146 9l-62 -253c27 0 81 3 161 8l-21 -102c-43 4 -96 6 -161 6l-43 -178l-80 -19l37 201
c-27 -1 -80 -4 -158 -10z" />
    <glyph glyph-name="circumflex" unicode="&#x2c6;" horiz-adv-x="500" 
d="M401 731l-20 -11c-21 9 -61 25 -120 49c-23 -9 -64 -25 -123 -49l-20 11l142 109c18 -15 65 -51 141 -109z" />
    <glyph glyph-name="perthousand" unicode="&#x2030;" horiz-adv-x="693" 
d="M637 222v-2c5 -18 8 -37 8 -58c0 -95 -53 -168 -124 -168c-45 0 -74 46 -74 118c0 69 23 112 74 163c3 5 5 11 5 20c31 25 48 37 52 37l10 -3c7 -4 14 -14 23 -30c9 -17 25 -31 52 -43zM15 -17c-9 9 -19 10 -33 10l370 480c-41 -9 -80 -13 -117 -13c-23 0 -41 3 -54 8
v-10c4 -4 10 -40 10 -63c0 -96 -53 -167 -125 -167c-49 0 -74 39 -74 118c0 49 17 96 50 139c26 26 28 28 29 43c27 25 44 37 52 37c14 0 34 -23 41 -46c8 -19 16 -23 52 -23c71 0 154 23 188 66l50 -11zM408 222v-2c5 -18 8 -37 8 -58c0 -95 -53 -168 -124 -168
c-45 0 -74 46 -74 118c0 51 17 98 50 139c28 28 29 29 29 44c29 25 46 37 52 37l10 -3c7 -4 14 -14 23 -30c12 -21 20 -26 52 -43zM547 243c-17 0 -34 -58 -34 -114c0 -45 16 -82 35 -82c26 4 34 6 34 96c0 55 -16 100 -35 100zM92 476c-18 0 -34 -57 -34 -114
c0 -44 15 -82 36 -82c25 4 33 6 33 97c0 53 -16 99 -35 99zM318 243c-17 0 -34 -58 -34 -114c0 -45 16 -82 35 -82c26 4 34 6 34 96c0 55 -16 100 -35 100z" />
    <glyph glyph-name="Scaron" unicode="&#x160;" horiz-adv-x="385" 
d="M401 829l-142 -109c-18 15 -65 51 -141 109l20 11c27 -11 67 -29 120 -54c27 12 68 30 123 54zM365 597c0 -17 -11 -40 -32 -67c-37 78 -51 94 -88 94c-28 0 -42 -20 -42 -61c0 -35 10 -55 100 -236c23 -49 35 -95 35 -140c0 -129 -76 -204 -208 -204
c-73 0 -130 101 -130 231c0 55 12 73 64 96c0 -187 34 -280 109 -280c28 0 47 30 47 74c0 61 -6 76 -105 260c-23 49 -34 96 -34 140c0 98 96 184 205 184c38 0 79 -53 79 -91z" />
    <glyph glyph-name="guilsinglleft" unicode="&#x2039;" horiz-adv-x="237" 
d="M198 67l-20 -18c-52 64 -112 123 -180 176c28 23 84 84 168 182l23 -23c-21 -45 -48 -98 -80 -157c25 -43 54 -96 89 -160z" />
    <glyph glyph-name="OE" unicode="&#x152;" horiz-adv-x="877" 
d="M856 135c-7 -53 -133 -144 -196 -144c-54 0 -121 58 -174 152c-59 -97 -160 -157 -261 -157c-68 0 -223 127 -223 294c0 92 38 174 113 247c11 10 52 40 124 91c-3 8 -7 20 -7 21c0 26 71 68 90 68c6 0 18 -9 37 -27l37 -36c34 -28 50 -36 110 -47c20 -4 30 -9 30 -15
c0 -12 -19 -30 -58 -55c30 -37 48 -89 54 -158c32 13 61 20 88 20c-43 49 -64 95 -64 138c0 72 95 152 182 152c29 0 88 -72 88 -107c0 -8 -20 -40 -27 -40c-1 1 -4 2 -8 3c-6 38 -56 92 -89 92c-23 0 -34 -17 -34 -51c0 -25 18 -64 55 -118l56 -82c0 -14 -52 -62 -65 -62
c-7 2 -62 18 -63 18c-26 0 -61 -30 -61 -59c0 -57 88 -200 133 -205c85 65 90 69 123 69c1 0 5 -1 10 -2zM456 307c-2 113 -23 182 -72 218c-50 15 -61 19 -99 45c-5 1 -9 2 -11 2c-7 0 -22 -8 -45 -25c-68 -49 -102 -119 -102 -208c0 -130 104 -261 207 -261
c65 0 102 54 112 161c2 21 5 44 10 68z" />
    <glyph glyph-name="Zcaron" unicode="&#x17d;" horiz-adv-x="558" 
d="M491 819l-142 -109c-18 15 -65 51 -141 109l20 11c27 -11 67 -29 120 -54c27 12 68 30 123 54zM540 645c0 -11 -39 -59 -116 -146s-115 -132 -115 -136c0 -8 12 -15 127 -74c-2 -21 -66 -63 -94 -63c-19 0 -56 16 -111 47l-76 -75c7 -7 25 -13 53 -16
c42 -11 66 -26 138 -77c45 -33 73 -49 83 -49c16 0 17 6 17 32l42 14c19 0 28 -9 28 -28c0 -39 -112 -89 -150 -89c-35 0 -73 12 -115 35c-138 78 -154 87 -185 96c-30 3 -68 16 -68 26c0 4 2 8 7 13c136 105 174 140 174 155c-52 58 -54 60 -54 70c0 11 58 46 75 46
c54 -30 54 -30 56 -30c20 0 100 91 110 122c-81 0 -86 0 -156 35c-54 28 -84 37 -119 37c-30 -60 -42 -67 -63 -67c-13 0 -20 9 -20 27c0 52 105 134 166 134c29 0 72 -10 131 -29c57 -19 101 -28 133 -28c22 0 51 12 87 37c10 0 15 -6 15 -19z" />
    <glyph glyph-name="quoteleft" unicode="&#x2018;" horiz-adv-x="221" 
d="M12 381c7 20 18 42 31 65l36 63c39 68 51 108 62 158c7 15 8 15 62 21c-1 -92 -10 -112 -80 -278z" />
    <glyph glyph-name="quoteright" unicode="&#x2019;" horiz-adv-x="221" 
d="M203 688c-7 -20 -18 -42 -31 -65l-36 -63c-39 -68 -51 -108 -62 -158c-7 -15 -8 -15 -62 -21c1 92 10 112 80 278z" />
    <glyph glyph-name="quotedblleft" unicode="&#x201c;" horiz-adv-x="305" 
d="M12 381c7 20 18 42 31 65l36 63c39 68 51 108 62 158c7 15 8 15 62 21c-1 -92 -10 -112 -80 -278zM182 381c7 20 18 42 31 65l36 63c39 68 51 108 62 158c7 15 8 15 62 21c-1 -92 -10 -112 -80 -278z" />
    <glyph glyph-name="quotedblright" unicode="&#x201d;" horiz-adv-x="305" 
d="M373 688c-7 -20 -18 -42 -31 -65l-36 -63c-39 -68 -51 -108 -62 -158c-7 -15 -8 -15 -62 -21c1 92 10 112 80 278zM203 688c-7 -20 -18 -42 -31 -65l-36 -63c-39 -68 -51 -108 -62 -158c-7 -15 -8 -15 -62 -21c1 92 10 112 80 278z" />
    <glyph glyph-name="bullet" unicode="&#x2022;" horiz-adv-x="291" 
d="M230 309c0 -57 -45 -102 -102 -102s-102 45 -102 102c0 59 44 103 102 103c57 0 102 -45 102 -103z" />
    <glyph glyph-name="endash" unicode="&#x2013;" horiz-adv-x="429" 
d="M393 221h-392v46h392v-46z" />
    <glyph glyph-name="emdash" unicode="&#x2014;" horiz-adv-x="793" 
d="M753 221h-752v46h752v-46z" />
    <glyph glyph-name="tilde" unicode="&#x2dc;" horiz-adv-x="644" 
d="M543 795l-48 -54c-21 -19 -43 -29 -64 -29c-17 0 -43 5 -76 15c-33 11 -59 16 -76 16s-36 -11 -57 -33l-23 10c62 70 76 82 110 82c18 0 44 -5 79 -15s62 -15 80 -15c16 0 34 11 54 32z" />
    <glyph glyph-name="trademark" unicode="&#x2122;" horiz-adv-x="936" 
d="M792 315v258h-14l-90 -258h-65l-90 258h-13v-258h-84v365h129l91 -243l91 243h129v-365h-84zM244 615v-300h-89v300h-104v65h299v-65h-106z" />
    <glyph glyph-name="scaron" unicode="&#x161;" horiz-adv-x="288" 
d="M318 556c-31 -23 -69 -52 -114 -87l-112 87l16 9c39 -15 71 -27 95 -36c44 15 77 27 99 36zM266 378c0 -23 -20 -54 -59 -91c-25 51 -46 76 -61 76c-11 0 -17 -6 -17 -17c0 -23 45 -96 91 -142c19 -25 28 -49 28 -72c0 -82 -78 -152 -170 -152c-55 0 -82 31 -82 92
c0 56 5 64 70 121c-17 33 -25 62 -25 89c0 61 90 161 147 161c22 0 78 -44 78 -65zM149 78c0 34 -44 82 -81 104l-4 -80c0 -26 29 -64 53 -64c18 0 32 18 32 40z" />
    <glyph glyph-name="guilsinglright" unicode="&#x203a;" horiz-adv-x="240" 
d="M198 225c-68 -53 -128 -112 -180 -176l-20 18c25 48 55 101 89 160c-27 49 -54 102 -81 157l24 23c94 -110 130 -149 168 -182z" />
    <glyph glyph-name="oe" unicode="&#x153;" horiz-adv-x="451" 
d="M435 373c0 -103 -130 -232 -153 -242c0 -43 26 -79 58 -79c10 0 28 5 54 16v-23c0 -24 -72 -49 -130 -49c-33 0 -59 15 -76 44c-33 -33 -70 -49 -111 -49c-40 0 -76 39 -76 81c0 87 22 240 43 287c8 18 104 71 129 71c27 0 49 -25 66 -76c47 60 94 90 140 90
c30 0 56 -34 56 -71zM358 349c0 25 -4 32 -18 32c-22 0 -56 -82 -63 -184c30 11 81 110 81 152zM168 190c0 67 -16 133 -34 143c-18 -24 -28 -63 -29 -117l-3 -126c10 -6 20 -13 33 -19c15 0 33 79 33 119z" />
    <glyph glyph-name="zcaron" unicode="&#x17e;" horiz-adv-x="325" 
d="M318 546c-31 -23 -69 -52 -114 -87l-112 87l16 9c39 -15 71 -27 95 -36c44 15 77 27 99 36zM310 377l-84 -130c6 -8 8 -9 48 -15c-8 -28 -39 -65 -82 -65c-7 2 -10 2 -12 3c-20 0 -40 -19 -59 -57c27 -20 98 -39 136 -39c4 0 44 16 46 18l3 -14c-64 -83 -77 -91 -108 -91
c-50 0 -161 34 -196 60l76 122c0 12 -17 19 -52 22v14c35 35 54 52 58 52c6 -1 21 -4 26 -4c25 0 31 7 67 68c-5 5 -11 8 -16 8c-20 -4 -34 -7 -38 -7c-50 0 -90 16 -90 38c43 51 68 76 77 76c-10 0 -15 -1 -15 -2c0 -10 166 -41 215 -41v-16z" />
    <glyph glyph-name="Ydieresis" unicode="&#x178;" horiz-adv-x="508" 
d="M466 646c0 -130 -31 -356 -66 -479c-57 -229 -86 -293 -160 -293c-5 0 -8 2 -8 5l60 217c-6 -3 -19 -17 -39 -42c-17 -21 -31 -32 -40 -32c-40 0 -126 171 -126 266v190c0 39 -14 101 -25 112c-51 -91 -53 -93 -58 -93c-11 0 -16 17 -16 51c0 61 8 73 79 112
c39 21 64 32 75 32c44 0 66 -101 66 -302c0 -141 16 -225 47 -250c44 41 66 141 79 365c0 9 3 39 8 94c4 14 84 64 102 64c15 0 22 -6 22 -17zM260 731c-19 -13 -40 -20 -61 -20c-25 0 -28 10 -29 63c0 12 3 18 8 19c18 3 43 7 76 13c-3 -10 -5 -19 -5 -26zM414 731
c-19 -13 -40 -20 -61 -20c-25 0 -28 10 -29 63c0 12 3 18 8 19c18 3 43 7 76 13c-3 -10 -5 -19 -5 -26z" />
    <glyph glyph-name="exclamdown" unicode="&#xa1;" horiz-adv-x="229" 
d="M180 399c-24 -19 -77 -46 -94 -46c-4 0 -7 5 -9 14c0 25 -9 41 -47 79c51 29 80 44 85 44c18 0 51 -50 65 -91zM147 109c0 -114 -5 -204 -16 -270l-139 -48c26 95 43 204 50 329c7 154 12 180 53 180l36 17c11 -43 16 -113 16 -208z" />
    <glyph glyph-name="cent" unicode="&#xa2;" horiz-adv-x="271" 
d="M254 433c0 -16 -8 -45 -23 -88c-13 -4 -39 -12 -77 -23c-1 1 -2 3 -2 4c13 56 13 59 13 99c0 8 -3 12 -8 12c-23 0 -31 -13 -44 -82c-8 -43 -12 -78 -12 -103c0 -80 13 -120 40 -120c20 0 34 14 73 74c13 -11 20 -23 20 -36c0 -29 -61 -77 -115 -99l-15 -70h-35l14 65
c-59 1 -80 42 -80 149c0 148 62 255 164 277l13 63h34l-12 -58c27 0 32 -3 42 -27c7 -15 10 -28 10 -37z" />
    <glyph glyph-name="sterling" unicode="&#xa3;" horiz-adv-x="417" 
d="M385 124c-16 -61 -102 -148 -141 -148c-11 0 -64 19 -157 58c-27 -21 -47 -39 -60 -52l-30 9c43 41 72 77 87 110v114l-61 -1c1 11 7 23 16 34l15 18c3 2 6 3 9 3c2 0 7 -1 16 -3c0 135 0 144 74 200c57 43 100 65 128 65c51 0 96 -57 96 -129c-17 -7 -49 -21 -98 -42
c-15 77 -29 99 -61 99c-25 0 -37 -21 -37 -62l7 -128h84l-59 -50l-28 -5c0 -20 -28 -86 -39 -97c43 -20 138 -54 152 -54c9 0 18 11 55 60z" />
    <glyph glyph-name="currency" unicode="&#xa4;" horiz-adv-x="451" 
d="M401 607c-2 -39 -4 -46 -17 -48l-80 -20c-4 0 -6 1 -6 4c0 1 1 7 4 23c0 28 -9 58 -22 58c-33 0 -60 -62 -80 -185h161l-10 -44h-157c0 -9 -2 -24 -5 -47h172l-10 -44h-166v-32c0 -131 32 -186 108 -186c23 0 51 14 86 43l11 -25c-3 -42 -109 -116 -151 -116
c-125 0 -187 77 -187 230l2 86h-46l10 44h40c1 17 3 32 6 47h-56l10 44h54c38 165 138 247 300 247c24 0 29 -5 29 -79z" />
    <glyph glyph-name="yen" unicode="&#xa5;" horiz-adv-x="512" 
d="M489 430l-23 -63l-138 -12c-2 -4 -9 -21 -21 -50l164 7l-28 -61h-156l-5 -16l-16 -172c-5 -47 -14 -70 -28 -70c-44 0 -101 62 -102 122c0 10 5 27 16 51c13 27 23 56 31 85h-120l11 43l120 6c3 14 5 29 6 44l-113 -10l8 43l107 15c0 40 -10 114 -29 223l125 57
c5 -33 7 -75 7 -128c0 -36 -5 -93 -14 -172h2l61 119c76 141 109 188 142 188c21 0 57 -23 110 -70c-35 -13 -70 -57 -106 -132l-41 13c0 17 5 36 15 58l-2 2c-41 -27 -79 -73 -114 -138z" />
    <glyph glyph-name="brokenbar" unicode="&#xa6;" horiz-adv-x="566" 
d="M236 696h91v-356h-91v356zM236 220h91v-355h-91v355z" />
    <glyph glyph-name="section" unicode="&#xa7;" horiz-adv-x="512" 
d="M515 616l-49 -78c-77 49 -133 73 -169 73c-39 0 -80 -27 -81 -49c0 -16 44 -60 135 -131c74 -58 111 -105 111 -140c0 -55 -32 -94 -132 -159c47 -39 57 -58 57 -106c0 -84 -103 -166 -196 -166c-52 0 -113 22 -182 66l52 79c69 -51 126 -77 170 -77c34 0 60 15 78 46
c-11 27 -39 58 -83 94l-109 89c-36 29 -54 62 -54 97c0 50 44 101 132 154c-42 32 -63 63 -63 92c0 76 106 179 191 179c56 0 120 -21 192 -63zM147 309c43 -63 93 -112 148 -147c27 9 82 52 82 66c0 8 -62 90 -144 152c-31 -17 -60 -41 -86 -71z" />
    <glyph glyph-name="dieresis" unicode="&#xa8;" 
d="M211 520c-19 -13 -40 -20 -61 -20c-25 0 -28 10 -29 63c0 12 3 18 8 19c18 3 43 7 76 13c-3 -10 -5 -19 -5 -26zM345 520c-19 -13 -40 -20 -61 -20c-25 0 -28 10 -29 63c0 12 3 18 8 19c18 3 43 7 76 13c-3 -10 -5 -19 -5 -26z" />
    <glyph glyph-name="copyright" unicode="&#xa9;" horiz-adv-x="795" 
d="M396 -7c-204 0 -356 141 -356 343c0 209 162 343 356 343c207 0 355 -143 355 -343c0 -201 -148 -343 -355 -343zM644 336c0 152 -104 262 -248 262s-249 -111 -249 -262c0 -153 102 -262 249 -262c144 0 248 110 248 262zM491 283h84c-15 -88 -80 -145 -165 -145
c-117 0 -193 79 -193 201c0 119 76 199 191 199c50 0 145 -18 163 -141h-80c-7 40 -34 60 -83 60c-58 0 -93 -44 -93 -117c0 -72 39 -121 95 -121c51 0 78 21 81 64z" />
    <glyph glyph-name="ordfeminine" unicode="&#xaa;" horiz-adv-x="276" 
d="M154 482l14 -16c25 11 50 37 75 77c3 26 10 55 20 86l-6 3c-50 -31 -84 -81 -103 -150zM228 679l50 -31c3 6 27 24 34 24c15 0 39 -27 39 -43c0 -9 -7 -26 -20 -52s-20 -42 -20 -49c0 -43 7 -78 21 -103l-68 -18c-11 20 -16 48 -17 84h-5c-45 -56 -81 -84 -108 -84
s-69 47 -69 77c0 52 81 147 163 195z" />
    <glyph glyph-name="guillemotleft" unicode="&#xab;" horiz-adv-x="409" 
d="M374 67l-20 -18c-52 64 -112 123 -180 176c28 23 84 84 168 182l26 -23l-83 -157c25 -43 54 -96 89 -160zM198 67l-20 -18c-52 64 -112 123 -180 176c28 23 84 84 168 182l23 -23c-21 -45 -48 -98 -80 -157c25 -43 54 -96 89 -160z" />
    <glyph glyph-name="logicalnot" unicode="&#xac;" horiz-adv-x="552" 
d="M410 75v192h-342v97h440v-289h-98z" />
    <glyph glyph-name="registered" unicode="&#xae;" horiz-adv-x="795" 
d="M396 -7c-204 0 -356 141 -356 343c0 209 162 343 356 343c207 0 355 -143 355 -343c0 -201 -148 -343 -355 -343zM644 336c0 152 -104 262 -248 262s-249 -111 -249 -262c0 -153 102 -262 249 -262c144 0 248 110 248 262zM338 307v-159h-81v376h140
c103 0 155 -38 155 -114c0 -62 -35 -95 -104 -99l98 -163h-83l-87 159h-38zM338 370h71c39 0 58 16 58 49c0 29 -24 43 -72 43h-57v-92z" />
    <glyph glyph-name="macron" unicode="&#xaf;" horiz-adv-x="403" 
d="M363 722l-298 -1l1 59h296z" />
    <glyph glyph-name="degree" unicode="&#xb0;" horiz-adv-x="262" 
d="M233 576c0 -66 -50 -117 -114 -117s-114 51 -114 117c0 65 50 116 114 116s114 -51 114 -116zM193 576c0 42 -34 76 -74 76c-41 0 -74 -34 -74 -76s34 -77 74 -77s74 35 74 77z" />
    <glyph glyph-name="plusminus" unicode="&#xb1;" horiz-adv-x="552" 
d="M239 331v109h98v-109h171v-97h-171v-110h-98v110h-171v97h171zM68 0v98h440v-98h-440z" />
    <glyph glyph-name="twosuperior" unicode="&#xb2;" horiz-adv-x="306" 
d="M282 587l-13 20c-56 0 -82 -8 -135 -44l-31 62l61 34c24 13 47 20 71 20c54 0 114 -70 114 -133c0 -55 -77 -123 -232 -204l2 -1c28 7 70 11 111 12c21 0 47 -2 78 -7l-24 -75c-37 8 -68 12 -94 12c-35 0 -70 -4 -104 -12l-27 77c84 31 206 160 223 239z" />
    <glyph glyph-name="threesuperior" unicode="&#xb3;" horiz-adv-x="306" 
d="M144 430l-12 30c92 45 142 90 151 137l-11 12c-26 -1 -72 -14 -137 -39l-27 60c59 33 109 49 151 49c44 0 92 -51 92 -101c0 -27 -28 -48 -133 -108l47 3c40 0 71 -60 71 -88c0 -52 -98 -159 -222 -159c-44 0 -66 16 -66 49c0 13 5 19 15 19c8 0 23 -4 46 -12
s42 -12 55 -12c24 0 82 85 82 110c0 21 -34 56 -59 56c-5 0 -20 -2 -43 -6z" />
    <glyph glyph-name="acute" unicode="&#xb4;" horiz-adv-x="422" 
d="M376 766l-166 -68l-29 24c95 66 144 99 147 99c6 -8 22 -26 48 -55z" />
    <glyph glyph-name="paragraph" unicode="&#xb6;" horiz-adv-x="570" 
d="M168 -140l93 488c-118 0 -177 43 -177 130c0 126 91 194 260 194h279l-156 -812h-103l141 732h-93l-141 -732h-103z" />
    <glyph glyph-name="periodcentered" unicode="&#xb7;" horiz-adv-x="250" 
d="M201 315c0 -28 -19 -66 -61 -66c-35 0 -60 28 -60 66s26 67 60 67s61 -31 61 -67z" />
    <glyph glyph-name="cedilla" unicode="&#xb8;" horiz-adv-x="390" 
d="M222 -83c0 -44 -56 -82 -120 -82c-25 0 -49 17 -49 37c0 15 10 22 29 22c21 -21 27 -27 41 -27c19 0 42 19 42 33s-4 22 -12 24c0 -1 -10 -1 -33 -1c13 51 19 68 30 79h32c-2 -2 -3 -5 -19 -54c17 3 29 4 36 4c15 0 23 -12 23 -35z" />
    <glyph glyph-name="onesuperior" unicode="&#xb9;" horiz-adv-x="306" 
d="M205 261l-65 32c25 68 67 200 67 327c-7 0 -8 0 -58 -24l-11 35c22 6 70 23 146 48l13 -14c0 -106 -34 -258 -92 -404z" />
    <glyph glyph-name="ordmasculine" unicode="&#xba;" horiz-adv-x="245" 
d="M216 679l20 -20c52 18 57 20 69 20c20 0 30 -22 30 -65c0 -66 -75 -207 -169 -207c-34 0 -74 47 -74 86c0 71 56 155 124 186zM170 464l13 -8c50 35 75 78 75 129c0 15 -4 32 -11 53h-11c-45 -39 -66 -94 -66 -174z" />
    <glyph glyph-name="guillemotright" unicode="&#xbb;" horiz-adv-x="411" 
d="M372 230c-37 -32 -93 -92 -167 -181l-27 22c16 29 44 82 84 157c-32 55 -62 108 -90 160l20 19c50 -62 110 -121 180 -177zM196 230c-28 -23 -84 -84 -168 -181l-26 22l83 157c-23 44 -53 98 -89 160l20 19c52 -64 112 -123 180 -177z" />
    <glyph glyph-name="onequarter" unicode="&#xbc;" horiz-adv-x="767" 
d="M546 705l76 -26l-425 -699l-36 13zM723 142c0 -3 -9 -12 -28 -27c-35 -29 -40 -35 -40 -84v-55c-12 -7 -37 -17 -75 -32c-3 6 -6 34 -7 84c-1 44 -7 66 -19 66c-35 -2 -56 -3 -69 -3c-23 0 -35 8 -35 24c33 55 65 108 95 161c41 110 42 111 143 136c7 -5 8 -10 8 -16
l-23 -217c0 -16 0 -21 30 -21h20v-16zM587 246c-17 -25 -36 -54 -55 -86c11 -3 25 -4 41 -4c9 15 13 45 14 90zM259 683c0 -17 -1 -20 -21 -129c-16 -174 -18 -191 -30 -274c-2 -6 -55 -27 -78 -32l25 333l-37 -17c-7 0 -12 6 -14 19c22 21 54 55 97 101c1 0 30 5 35 7h19z
" />
    <glyph glyph-name="onehalf" unicode="&#xbd;" horiz-adv-x="767" 
d="M530 705l75 -26l-425 -699l-36 13zM259 683c0 -17 -1 -20 -21 -129c-16 -174 -18 -191 -30 -274c-2 -6 -55 -27 -78 -32l25 333l-37 -17c-7 0 -12 6 -14 19c22 21 54 55 97 101c1 0 30 5 35 7h19zM744 346c0 -76 -55 -169 -142 -239l34 -34c19 -19 31 -29 34 -29
s11 8 24 24c19 24 21 24 40 24c5 -3 7 -6 7 -10c0 -30 -80 -106 -112 -106c-19 0 -40 10 -65 31l-37 31c-5 0 -12 -6 -19 -17s-15 -16 -24 -16c-11 0 -17 3 -17 8s21 35 62 88c44 56 69 96 76 119l-7 2c-50 -22 -56 -25 -65 -25c-24 0 -55 42 -55 72c0 68 105 159 174 159
c57 0 92 -31 92 -82zM650 343c0 14 -16 28 -32 28c-31 0 -58 -36 -58 -78c0 -23 6 -35 17 -35c38 0 73 41 73 85z" />
    <glyph glyph-name="threequarters" unicode="&#xbe;" horiz-adv-x="767" 
d="M592 705l76 -26l-425 -699l-36 13zM723 142c0 -3 -9 -12 -28 -27c-35 -29 -40 -35 -40 -84v-55c-12 -7 -37 -17 -75 -32c-3 6 -6 34 -7 84c-1 44 -7 66 -19 66c-35 -2 -56 -3 -69 -3c-23 0 -35 8 -35 24c33 55 65 108 95 161c41 110 42 111 143 136c7 -5 8 -10 8 -16
l-23 -217c0 -16 0 -21 30 -21h20v-16zM587 246c-17 -25 -36 -54 -55 -86c11 -3 25 -4 41 -4c9 15 13 45 14 90zM309 588c0 -36 -25 -71 -74 -104v-8c40 -26 60 -62 60 -107c0 -68 -63 -129 -133 -129c-35 0 -97 69 -97 107c0 14 54 40 65 42c41 -72 52 -87 67 -87
c7 0 11 4 11 11c0 56 -49 117 -117 145v13c39 29 60 43 65 43c1 0 1 0 33 -12c14 0 30 29 30 55c0 31 -27 61 -55 61c-14 0 -24 -10 -30 -30c-8 -62 -15 -74 -44 -74c-14 0 -21 8 -21 25c0 69 81 141 158 141c40 0 82 -47 82 -92z" />
    <glyph glyph-name="questiondown" unicode="&#xbf;" horiz-adv-x="295" 
d="M190 404c-21 -18 -77 -45 -93 -45c-4 0 -7 4 -8 12c-6 33 -6 35 -48 81c47 29 77 43 90 43c31 0 59 -43 59 -91zM242 2l-7 -51c-7 -47 -26 -73 -78 -110c-33 -24 -62 -36 -87 -36c-42 0 -70 39 -70 96c0 81 37 139 99 215c23 28 34 48 34 59c0 12 -15 26 -44 42l-60 33
c40 44 62 66 66 66c43 0 129 -75 129 -116c0 -7 -10 -27 -31 -58c-64 -95 -90 -166 -90 -245c0 -11 4 -18 13 -22c30 24 40 49 40 98c30 18 59 28 86 29z" />
    <glyph glyph-name="Agrave" unicode="&#xc0;" horiz-adv-x="589" 
d="M541 722l-30 -24l-166 68l49 55c3 0 52 -33 147 -99zM537 23c-36 -19 -70 -29 -102 -32c-46 142 -129 312 -166 312c-3 -4 -8 -15 -15 -32c-83 -195 -162 -293 -237 -293c-14 0 -21 6 -21 17c0 16 5 36 15 61c13 -7 24 -11 33 -11c37 0 180 246 180 275
c0 11 -42 24 -62 24s-36 -5 -47 -15l-15 15c13 28 47 42 101 42c23 0 40 -4 53 -12c10 5 125 181 125 193v71c40 26 76 41 109 45c2 -101 8 -204 17 -309zM396 255c0 42 0 42 -17 229l-57 -83c-5 -7 -14 -22 -26 -45l65 -56c1 -1 2 -2 35 -45z" />
    <glyph glyph-name="Aacute" unicode="&#xc1;" horiz-adv-x="589" 
d="M536 766l-166 -68l-29 24c95 66 144 99 147 99c6 -8 22 -26 48 -55zM537 23c-36 -19 -70 -29 -102 -32c-46 142 -129 312 -166 312c-3 -4 -8 -15 -15 -32c-83 -195 -162 -293 -237 -293c-14 0 -21 6 -21 17c0 16 5 36 15 61c13 -7 24 -11 33 -11c37 0 180 246 180 275
c0 11 -42 24 -62 24s-36 -5 -47 -15l-15 15c13 28 47 42 101 42c23 0 40 -4 53 -12c10 5 125 181 125 193v71c40 26 76 41 109 45c2 -101 8 -204 17 -309zM396 255c0 42 0 42 -17 229l-57 -83c-5 -7 -14 -22 -26 -45l65 -56c1 -1 2 -2 35 -45z" />
    <glyph glyph-name="Acircumflex" unicode="&#xc2;" horiz-adv-x="589" 
d="M561 721l-20 -11c-21 9 -61 25 -120 49c-23 -9 -64 -25 -123 -49l-20 11l142 109c18 -15 65 -51 141 -109zM537 23c-36 -19 -70 -29 -102 -32c-46 142 -129 312 -166 312c-3 -4 -8 -15 -15 -32c-83 -195 -162 -293 -237 -293c-14 0 -21 6 -21 17c0 16 5 36 15 61
c13 -7 24 -11 33 -11c37 0 180 246 180 275c0 11 -42 24 -62 24s-36 -5 -47 -15l-15 15c13 28 47 42 101 42c23 0 40 -4 53 -12c10 5 125 181 125 193v71c40 26 76 41 109 45c2 -101 8 -204 17 -309zM396 255c0 42 0 42 -17 229l-57 -83c-5 -7 -14 -22 -26 -45l65 -56
c1 -1 2 -2 35 -45z" />
    <glyph glyph-name="Atilde" unicode="&#xc3;" horiz-adv-x="589" 
d="M596 814l-48 -54c-21 -19 -43 -29 -64 -29c-17 0 -43 5 -77 15c-34 11 -59 16 -76 16c-16 0 -35 -11 -56 -33l-24 10c59 66 76 82 110 82c18 0 45 -5 80 -15s62 -15 80 -15c15 0 33 11 54 32zM537 23c-36 -19 -70 -29 -102 -32c-46 142 -129 312 -166 312
c-3 -4 -8 -15 -15 -32c-83 -195 -162 -293 -237 -293c-14 0 -21 6 -21 17c0 16 5 36 15 61c13 -7 24 -11 33 -11c37 0 180 246 180 275c0 11 -42 24 -62 24s-36 -5 -47 -15l-15 15c13 28 47 42 101 42c23 0 40 -4 53 -12c10 5 125 181 125 193v71c40 26 76 41 109 45
c2 -101 8 -204 17 -309zM396 255c0 42 0 42 -17 229l-57 -83c-5 -7 -14 -22 -26 -45l65 -56c1 -1 2 -2 35 -45z" />
    <glyph glyph-name="Adieresis" unicode="&#xc4;" horiz-adv-x="589" 
d="M537 23c-35 -18 -69 -29 -102 -32c-58 171 -132 312 -166 312c-2 -3 -7 -13 -15 -32c-83 -195 -162 -293 -237 -293c-14 0 -21 6 -21 17c0 16 5 36 15 61c13 -7 24 -11 33 -11c37 0 180 246 180 275c0 11 -42 24 -62 24s-36 -5 -47 -15l-15 15c13 28 47 42 101 42
c23 0 40 -4 53 -12c16 9 125 186 125 193v71c40 26 76 41 109 45c2 -105 8 -208 17 -309zM396 255c0 40 0 44 -17 229l-57 -83c-7 -10 -15 -25 -26 -45l65 -56c1 -1 2 -2 35 -45zM400 731c-19 -13 -40 -20 -61 -20c-25 0 -28 10 -29 63c0 12 3 18 8 19c18 3 43 7 76 13
c-3 -10 -5 -19 -5 -26zM554 731c-19 -13 -40 -20 -61 -20c-25 0 -28 10 -29 63c0 12 3 18 8 19c18 3 43 7 76 13c-3 -10 -5 -19 -5 -26z" />
    <glyph glyph-name="Aring" unicode="&#xc5;" horiz-adv-x="589" 
d="M483 777c0 -38 -33 -69 -73 -69s-72 30 -72 69c0 38 32 68 72 68c41 0 73 -31 73 -68zM537 23c-36 -19 -70 -29 -102 -32c-46 142 -129 312 -166 312c-3 -4 -8 -15 -15 -32c-83 -195 -162 -293 -237 -293c-14 0 -21 6 -21 17c0 16 5 36 15 61c13 -7 24 -11 33 -11
c37 0 180 246 180 275c0 11 -42 24 -62 24s-36 -5 -47 -15l-15 15c13 28 47 42 101 42c23 0 40 -4 53 -12c10 5 125 181 125 193v71c40 26 76 41 109 45c2 -101 8 -204 17 -309zM453 777c0 25 -14 38 -43 38c-24 0 -42 -17 -42 -38c0 -26 14 -39 42 -39c23 0 43 16 43 39z
M396 255c0 42 0 42 -17 229l-57 -83c-5 -7 -14 -22 -26 -45l65 -56c1 -1 2 -2 35 -45z" />
    <glyph glyph-name="AE" unicode="&#xc6;" horiz-adv-x="870" 
d="M846 135c-7 -53 -133 -144 -196 -144c-15 0 -49 20 -100 59l18 -53c-24 0 -60 -1 -107 -3c-34 98 -150 309 -192 309c-3 -4 -8 -15 -15 -32c-83 -195 -162 -293 -237 -293c-14 0 -21 6 -21 17c0 16 5 36 15 61c13 -7 24 -11 33 -11c37 0 180 246 180 275
c0 11 -42 24 -62 24s-36 -5 -47 -15l-15 15c13 28 47 42 101 42c23 0 40 -4 53 -12c16 11 125 180 125 193v71c40 26 76 41 109 45c8 -253 8 -269 20 -325c35 19 69 30 102 31c-43 49 -64 95 -64 138c0 72 95 152 182 152c29 0 88 -72 88 -107c0 -8 -20 -40 -27 -40
c-1 1 -4 2 -8 3c-6 38 -56 92 -89 92c-23 0 -34 -17 -34 -51c0 -25 18 -64 55 -118l56 -82c0 -14 -52 -62 -65 -62c-7 2 -62 18 -63 18c-35 0 -94 -41 -94 -66c0 -53 114 -190 166 -198c85 65 90 69 123 69c1 0 5 -1 10 -2zM453 171c0 21 0 42 -40 227c-9 41 -15 78 -20 111
c-23 -33 -55 -84 -97 -153c54 -29 94 -82 157 -185z" />
    <glyph glyph-name="Ccedilla" unicode="&#xc7;" horiz-adv-x="390" 
d="M349 659c0 -103 -6 -139 -24 -146l-83 -33c-4 0 -6 2 -6 5c7 24 13 72 13 111c0 12 -10 28 -19 28c-49 0 -96 -183 -96 -352c0 -131 32 -186 109 -186c23 0 51 14 86 43l11 -25c-3 -45 -103 -115 -167 -115c-5 -5 -7 -15 -7 -30c0 -5 -1 -8 -3 -11c16 3 28 4 36 4
c15 0 23 -12 23 -35c0 -44 -56 -82 -120 -82c-25 0 -49 17 -49 37c0 15 10 22 29 22c26 -26 26 -26 52 -26c13 3 31 21 31 32c0 14 -4 22 -12 24c0 -1 -10 -1 -33 -1c2 13 9 36 22 69c-93 17 -140 93 -140 226c0 327 95 468 320 468c18 0 27 -9 27 -27z" />
    <glyph glyph-name="Egrave" unicode="&#xc8;" horiz-adv-x="422" 
d="M330 721l-24 -21l-141 60l47 48c3 0 42 -29 118 -87zM406 135c-7 -53 -133 -144 -196 -144c-45 0 -92 34 -143 103c-48 65 -72 121 -72 169c0 68 83 124 175 126c-43 49 -64 95 -64 138c0 72 95 152 182 152c29 0 88 -72 88 -107c0 -8 -20 -40 -27 -40c-1 1 -4 2 -8 3
c-6 38 -56 92 -89 92c-23 0 -34 -17 -34 -51c0 -25 18 -64 55 -118l56 -82c0 -14 -52 -62 -65 -62c-61 18 -62 18 -63 18c-26 0 -61 -30 -61 -59c0 -57 88 -200 133 -205c84 65 90 69 123 69c1 0 5 -1 10 -2z" />
    <glyph glyph-name="Eacute" unicode="&#xc9;" horiz-adv-x="422" 
d="M376 766l-166 -68l-29 24c95 66 144 99 147 99c6 -8 22 -26 48 -55zM406 135c-7 -53 -133 -144 -196 -144c-45 0 -92 34 -143 103c-48 65 -72 121 -72 169c0 68 83 124 175 126c-43 49 -64 95 -64 138c0 72 95 152 182 152c29 0 88 -72 88 -107c0 -8 -20 -40 -27 -40
c-1 1 -4 2 -8 3c-6 38 -56 92 -89 92c-23 0 -34 -17 -34 -51c0 -25 18 -64 55 -118l56 -82c0 -14 -52 -62 -65 -62c-61 18 -62 18 -63 18c-26 0 -61 -30 -61 -59c0 -57 88 -200 133 -205c84 65 90 69 123 69c1 0 5 -1 10 -2z" />
    <glyph glyph-name="Ecircumflex" unicode="&#xca;" horiz-adv-x="422" 
d="M421 711l-20 -11c-21 9 -61 25 -120 49c-23 -9 -64 -25 -123 -49l-20 11l142 109c18 -15 65 -51 141 -109zM406 135c-7 -53 -133 -144 -196 -144c-45 0 -92 34 -143 103c-48 65 -72 121 -72 169c0 68 83 124 175 126c-43 49 -64 95 -64 138c0 72 95 152 182 152
c29 0 88 -72 88 -107c0 -8 -20 -40 -27 -40c-1 1 -4 2 -8 3c-6 38 -56 92 -89 92c-23 0 -34 -17 -34 -51c0 -25 18 -64 55 -118l56 -82c0 -14 -52 -62 -65 -62c-61 18 -62 18 -63 18c-26 0 -61 -30 -61 -59c0 -57 88 -200 133 -205c84 65 90 69 123 69c1 0 5 -1 10 -2z" />
    <glyph glyph-name="Edieresis" unicode="&#xcb;" horiz-adv-x="422" 
d="M406 135c-7 -53 -133 -144 -196 -144c-45 0 -92 34 -143 103c-48 65 -72 121 -72 169c0 68 83 124 175 126c-43 49 -64 95 -64 138c0 72 95 152 182 152c29 0 88 -72 88 -107c0 -8 -20 -40 -27 -40c-1 1 -4 2 -8 3c-6 38 -56 92 -89 92c-23 0 -34 -17 -34 -51
c0 -25 18 -64 55 -118l56 -82c0 -14 -52 -62 -65 -62c-61 18 -62 18 -63 18c-26 0 -61 -30 -61 -59c0 -57 88 -200 133 -205c84 65 90 69 123 69c1 0 5 -1 10 -2zM240 731c-19 -13 -40 -20 -61 -20c-25 0 -28 10 -29 63c0 12 3 18 8 19c18 3 43 7 76 13
c-3 -10 -5 -19 -5 -26zM394 731c-19 -13 -40 -20 -61 -20c-25 0 -28 10 -29 63c0 12 3 18 8 19c18 3 43 7 76 13c-3 -10 -5 -19 -5 -26z" />
    <glyph glyph-name="Igrave" unicode="&#xcc;" horiz-adv-x="453" 
d="M350 721l-24 -21l-141 60l47 48c3 0 42 -29 118 -87zM398 629c0 -228 -5 -316 -25 -412c-31 -151 -91 -227 -180 -227c-65 0 -134 55 -173 138l14 13c27 -5 52 -10 75 -16c24 -40 74 -85 98 -85c29 0 64 180 64 392c0 96 -4 148 -12 157c-56 -32 -63 -42 -172 -180
c-3 -3 -25 -12 -66 -27l-10 14c7 100 256 283 366 283c14 0 21 -17 21 -50z" />
    <glyph glyph-name="Iacute" unicode="&#xcd;" horiz-adv-x="453" 
d="M387 755l-169 -71l-33 30c95 66 144 99 147 99c18 -21 41 -44 55 -58zM398 629c0 -228 -5 -316 -25 -412c-31 -151 -91 -227 -180 -227c-65 0 -134 55 -173 138l14 13c27 -5 52 -10 75 -16c24 -40 74 -85 98 -85c29 0 64 180 64 392c0 96 -4 148 -12 157
c-56 -32 -63 -42 -172 -180c-3 -3 -25 -12 -66 -27l-10 14c7 100 256 283 366 283c14 0 21 -17 21 -50z" />
    <glyph glyph-name="Icircumflex" unicode="&#xce;" horiz-adv-x="453" 
d="M451 721l-20 -11c-21 9 -61 25 -120 49c-23 -9 -64 -25 -123 -49l-20 11l142 109c18 -15 65 -51 141 -109zM398 629c0 -228 -5 -316 -25 -412c-31 -151 -91 -227 -180 -227c-65 0 -134 55 -173 138l14 13c27 -5 52 -10 75 -16c24 -40 74 -85 98 -85c29 0 64 180 64 392
c0 96 -4 148 -12 157c-56 -32 -63 -42 -172 -180c-3 -3 -25 -12 -66 -27l-10 14c7 100 256 283 366 283c14 0 21 -17 21 -50z" />
    <glyph glyph-name="Idieresis" unicode="&#xcf;" horiz-adv-x="453" 
d="M398 629c0 -228 -5 -316 -25 -412c-31 -151 -91 -227 -180 -227c-65 0 -134 55 -173 138l14 13c27 -5 52 -10 75 -16c24 -40 74 -85 98 -85c29 0 64 180 64 392c0 96 -4 148 -12 157c-56 -32 -63 -42 -172 -180c-3 -3 -25 -12 -66 -27l-10 14c7 100 256 283 366 283
c14 0 21 -17 21 -50zM240 731c-19 -13 -40 -20 -61 -20c-25 0 -28 10 -29 63c0 12 3 18 8 19c18 3 43 7 76 13c-3 -10 -5 -19 -5 -26zM394 731c-19 -13 -40 -20 -61 -20c-25 0 -28 10 -29 63c0 12 3 18 8 19c18 3 43 7 76 13c-3 -10 -5 -19 -5 -26z" />
    <glyph glyph-name="Eth" unicode="&#xd0;" horiz-adv-x="519" 
d="M480 263c0 -153 -126 -275 -290 -275c-112 0 -197 23 -197 30c10 0 35 110 49 176h-53v69h68c43 186 46 188 169 245c-17 25 -88 57 -212 94c-8 3 -12 6 -12 9c0 13 67 64 100 81c208 -27 378 -220 378 -429zM375 214c0 86 -66 233 -123 272c-23 -21 -50 -95 -83 -223
h119v-69h-135c-11 -45 -16 -78 -16 -99c0 -18 94 -34 168 -34c39 0 70 75 70 153z" />
    <glyph glyph-name="Ntilde" unicode="&#xd1;" horiz-adv-x="617" 
d="M536 814l-48 -54c-21 -19 -43 -29 -64 -29c-17 0 -43 5 -77 15c-34 11 -59 16 -76 16c-16 0 -35 -11 -56 -33l-24 10c59 66 76 82 110 82c18 0 45 -5 80 -15s62 -15 80 -15c15 0 33 11 54 32zM577 608c0 -35 -15 -100 -66 -293c-14 -62 -21 -116 -21 -163
c0 -60 8 -90 25 -90c1 1 10 5 27 11c2 0 22 -5 22 -10c-32 -64 -55 -93 -116 -93c-39 0 -87 73 -87 119c0 52 15 189 50 331l32 136c0 6 -1 7 -6 8c-92 -56 -161 -199 -198 -422c-8 -45 -17 -86 -26 -121c-2 -7 -71 -34 -86 -34c-7 0 -11 3 -11 10l32 410
c0 79 -28 220 -46 220c-8 0 -22 -22 -41 -66s-30 -66 -34 -66c-14 0 -29 14 -29 26c0 76 102 183 175 183c53 0 79 -64 79 -244c0 -10 1 -17 4 -22c126 152 197 210 260 210c41 0 61 -13 61 -40z" />
    <glyph glyph-name="Ograve" unicode="&#xd2;" horiz-adv-x="593" 
d="M430 721l-24 -21l-141 60l47 48c3 0 42 -29 118 -87zM536 582c0 -13 -19 -31 -58 -55c37 -45 56 -119 56 -221c0 -172 -142 -320 -309 -320c-68 0 -223 127 -223 294c0 92 38 174 113 247c11 10 52 40 124 91c-3 8 -7 20 -7 21c0 26 71 68 90 68c6 0 18 -9 37 -27l37 -36
c46 -34 59 -37 109 -47c21 -4 31 -9 31 -15zM456 304c0 114 -31 201 -72 221c-50 15 -61 19 -99 45c-5 1 -9 2 -11 2c-7 0 -22 -8 -45 -25c-68 -49 -102 -119 -102 -208c0 -130 104 -261 207 -261c72 0 122 90 122 226z" />
    <glyph glyph-name="Oacute" unicode="&#xd3;" horiz-adv-x="593" 
d="M416 776l-166 -68l-29 24c95 66 144 99 147 99c6 -8 22 -26 48 -55zM536 582c0 -13 -19 -31 -58 -55c37 -45 56 -119 56 -221c0 -172 -142 -320 -309 -320c-68 0 -223 127 -223 294c0 92 38 174 113 247c11 10 52 40 124 91c-3 8 -7 20 -7 21c0 19 53 47 87 47
c19 0 21 -1 110 -66c21 -12 31 -14 77 -23c20 -4 30 -9 30 -15zM456 304c0 114 -31 201 -72 221c-50 15 -61 19 -99 45c-5 1 -9 2 -11 2c-7 0 -22 -8 -45 -25c-68 -49 -102 -119 -102 -208c0 -130 104 -261 207 -261c72 0 122 90 122 226z" />
    <glyph glyph-name="Ocircumflex" unicode="&#xd4;" horiz-adv-x="593" 
d="M461 721l-20 -11c-21 9 -61 25 -120 49c-23 -9 -64 -25 -123 -49l-20 11l142 109c18 -15 65 -51 141 -109zM536 582c0 -13 -19 -31 -58 -55c37 -45 56 -119 56 -221c0 -172 -142 -320 -309 -320c-68 0 -223 127 -223 294c0 92 38 174 113 247c11 10 52 40 124 91
c-3 8 -7 20 -7 21c0 26 71 68 90 68c6 0 18 -9 37 -27l37 -36c46 -34 59 -37 109 -47c21 -4 31 -9 31 -15zM456 304c0 114 -31 201 -72 221c-50 15 -61 19 -99 45c-5 1 -9 2 -11 2c-7 0 -22 -8 -45 -25c-68 -49 -102 -119 -102 -208c0 -130 104 -261 207 -261
c72 0 122 90 122 226z" />
    <glyph glyph-name="Otilde" unicode="&#xd5;" horiz-adv-x="593" 
d="M536 814l-48 -54c-21 -19 -43 -29 -64 -29c-17 0 -43 5 -77 15c-34 11 -59 16 -76 16c-16 0 -35 -11 -56 -33l-24 10c59 66 76 82 110 82c18 0 45 -5 80 -15s62 -15 80 -15c15 0 33 11 54 32zM536 582c0 -13 -19 -31 -58 -55c37 -45 56 -119 56 -221
c0 -172 -142 -320 -309 -320c-68 0 -223 127 -223 294c0 92 38 174 113 247c11 10 52 40 124 91c-3 8 -7 20 -7 21c0 26 71 68 90 68c6 0 18 -9 37 -27l37 -36c46 -34 59 -37 109 -47c21 -4 31 -9 31 -15zM456 304c0 114 -31 201 -72 221c-50 15 -61 19 -99 45
c-5 1 -9 2 -11 2c-7 0 -22 -8 -45 -25c-68 -49 -102 -119 -102 -208c0 -130 104 -261 207 -261c72 0 122 90 122 226z" />
    <glyph glyph-name="Odieresis" unicode="&#xd6;" horiz-adv-x="593" 
d="M536 582c0 -13 -19 -31 -58 -55c37 -45 56 -119 56 -221c0 -172 -142 -320 -309 -320c-68 0 -223 127 -223 294c0 92 38 174 113 247c11 10 52 40 124 91c-3 8 -7 20 -7 21c0 26 71 68 90 68c6 0 18 -9 37 -27l37 -36c46 -34 59 -37 109 -47c21 -4 31 -9 31 -15zM456 304
c0 114 -31 201 -72 221c-50 15 -61 19 -99 45c-5 1 -9 2 -11 2c-7 0 -22 -8 -45 -25c-68 -49 -102 -119 -102 -208c0 -130 104 -261 207 -261c72 0 122 90 122 226zM286 731c-19 -13 -40 -20 -61 -20c-25 0 -28 10 -29 63c0 12 3 18 8 19c18 3 43 7 76 13
c-3 -10 -5 -19 -5 -26zM440 731c-19 -13 -40 -20 -61 -20c-25 0 -28 10 -29 63c0 12 3 18 8 19c18 3 43 7 76 13c-3 -10 -5 -19 -5 -26z" />
    <glyph glyph-name="multiply" unicode="&#xd7;" horiz-adv-x="552" 
d="M219 220l-151 151l69 69l151 -151l151 151l69 -69l-151 -151l151 -151l-69 -69l-151 151l-151 -151l-69 69z" />
    <glyph glyph-name="Oslash" unicode="&#xd8;" horiz-adv-x="593" 
d="M536 582c0 -13 -19 -31 -58 -55c37 -45 56 -119 56 -221c0 -172 -142 -320 -309 -320c-11 0 -24 4 -41 11l-16 -40h-44l24 61c-86 57 -146 167 -146 262c0 92 38 174 113 247c11 10 52 40 124 91c-3 8 -7 20 -7 21c0 26 71 68 90 68c7 0 20 -10 39 -31s32 -32 37 -33
l22 56h44l-32 -80c11 -8 35 -15 74 -21c20 -5 30 -10 30 -16zM456 304c0 107 -21 179 -64 215l-160 -401c31 -27 65 -40 102 -40c72 0 122 90 122 226zM354 534c-24 8 -43 17 -56 26c-9 9 -11 10 -24 12c-7 0 -22 -8 -45 -25c-68 -49 -102 -118 -102 -208
c0 -65 25 -128 74 -189z" />
    <glyph glyph-name="Ugrave" unicode="&#xd9;" horiz-adv-x="459" 
d="M330 721l-24 -21l-141 60l47 48c3 0 42 -29 118 -87zM459 717c-60 -269 -90 -468 -90 -599c0 -29 6 -44 17 -44c3 0 12 1 27 3c2 -8 3 -13 3 -15c0 -28 -75 -79 -106 -79c-34 0 -38 20 -61 131l-59 -86c-25 -28 -55 -42 -91 -42c-62 0 -93 67 -93 200c0 46 6 115 17 206
c12 92 18 161 18 207c-3 15 -7 37 -7 40c0 9 36 26 108 53c20 -31 25 -52 25 -98l-34 -473c0 -40 5 -53 24 -54c59 96 95 229 159 561c59 45 106 75 143 89z" />
    <glyph glyph-name="Uacute" unicode="&#xda;" horiz-adv-x="459" 
d="M386 766l-166 -68l-29 24c95 66 144 99 147 99c6 -8 22 -26 48 -55zM459 717c-60 -269 -90 -468 -90 -599c0 -29 6 -44 17 -44c3 0 12 1 27 3c2 -8 3 -13 3 -15c0 -28 -75 -79 -106 -79c-34 0 -38 20 -61 131l-59 -86c-25 -28 -55 -42 -91 -42c-62 0 -93 67 -93 200
c0 46 6 115 17 206c12 92 18 161 18 207c-3 15 -7 37 -7 40c0 9 36 26 108 53c20 -31 25 -52 25 -98l-34 -473c0 -40 5 -53 24 -54c59 96 95 229 159 561c59 45 106 75 143 89z" />
    <glyph glyph-name="Ucircumflex" unicode="&#xdb;" horiz-adv-x="459" 
d="M391 721l-20 -11c-21 9 -61 25 -120 49c-23 -9 -64 -25 -123 -49l-20 11l142 109c18 -15 65 -51 141 -109zM459 717c-60 -269 -90 -468 -90 -599c0 -29 6 -44 17 -44c3 0 12 1 27 3c2 -8 3 -13 3 -15c0 -28 -75 -79 -106 -79c-34 0 -38 20 -61 131l-59 -86
c-25 -28 -55 -42 -91 -42c-62 0 -93 67 -93 200c0 46 6 115 17 206c12 92 18 161 18 207c-3 15 -7 37 -7 40c0 9 36 26 108 53c20 -31 25 -52 25 -98l-34 -473c0 -40 5 -53 24 -54c59 96 95 229 159 561c59 45 106 75 143 89z" />
    <glyph glyph-name="Udieresis" unicode="&#xdc;" horiz-adv-x="459" 
d="M459 717c-60 -269 -90 -468 -90 -599c0 -29 6 -44 17 -44c3 0 12 1 27 3c2 -8 3 -13 3 -15c0 -28 -75 -79 -106 -79c-34 0 -38 20 -61 131l-59 -86c-25 -28 -55 -42 -91 -42c-62 0 -93 67 -93 200c0 46 6 115 17 206c12 92 18 161 18 207c-3 15 -7 37 -7 40
c0 9 36 26 108 53c20 -31 25 -52 25 -98l-34 -473c0 -40 5 -53 24 -54c59 96 95 229 159 561c59 45 106 75 143 89zM240 731c-19 -13 -40 -20 -61 -20c-25 0 -28 10 -29 63c0 12 3 18 8 19c18 3 43 7 76 13c-3 -10 -5 -19 -5 -26zM394 731c-19 -13 -40 -20 -61 -20
c-25 0 -28 10 -29 63c0 12 3 18 8 19c18 3 43 7 76 13c-3 -10 -5 -19 -5 -26z" />
    <glyph glyph-name="Yacute" unicode="&#xdd;" horiz-adv-x="508" 
d="M376 766l-166 -68l-29 24c95 66 144 99 147 99c6 -8 22 -26 48 -55zM466 646c0 -130 -31 -356 -66 -479c-57 -229 -86 -293 -160 -293c-5 0 -8 2 -8 5l60 217c-6 -3 -19 -17 -39 -42c-17 -21 -31 -32 -40 -32c-40 0 -126 171 -126 266v190c0 39 -14 101 -25 112
c-51 -91 -53 -93 -58 -93c-11 0 -16 17 -16 51c0 61 8 73 79 112c39 21 64 32 75 32c44 0 66 -101 66 -302c0 -141 16 -225 47 -250c44 41 66 141 79 365c0 9 3 39 8 94c4 14 84 64 102 64c15 0 22 -6 22 -17z" />
    <glyph glyph-name="Thorn" unicode="&#xde;" horiz-adv-x="638" 
d="M592 459c0 -111 -96 -228 -196 -228c-83 0 -131 2 -144 6c-27 -106 -29 -108 -78 -143c22 8 36 10 71 10l137 -37c15 0 16 0 77 13c7 0 11 -1 11 -3c0 -34 -76 -72 -185 -93l-159 26l-88 -18c-13 0 -23 5 -23 12c1 1 2 3 2 7c25 25 74 91 84 118c9 23 18 74 25 151
c13 135 42 166 128 234c0 12 -50 27 -89 27c-68 0 -81 -24 -81 -84c0 -8 1 -13 9 -82c0 -6 -29 -62 -76 -62c-17 23 -25 56 -25 101c0 133 109 221 270 221c56 0 121 -16 196 -49c89 -39 134 -82 134 -127zM482 383c0 24 -147 112 -182 112c-18 0 -44 -132 -44 -197l2 -13
c173 0 184 2 206 39c12 20 18 40 18 59z" />
    <glyph glyph-name="germandbls" unicode="&#xdf;" horiz-adv-x="373" 
d="M69 534c19 97 80 145 184 145c80 0 106 -37 106 -143c0 -85 -25 -109 -113 -163c83 -33 98 -58 101 -168c0 -82 -70 -205 -150 -205c-33 0 -38 3 -67 27c1 3 6 23 15 62c21 -23 39 -34 55 -34c12 0 33 70 33 108v62c-14 100 -20 114 -68 133l9 56c66 0 91 24 91 106
c0 64 -7 82 -34 82c-19 0 -37 -11 -55 -34c-29 -107 -78 -535 -78 -661l-84 -24l-5 30c0 185 27 452 60 621z" />
    <glyph glyph-name="agrave" unicode="&#xe0;" 
d="M320 481l-24 -21l-141 60l47 48c3 0 42 -29 118 -87zM328 419c-39 -128 -56 -224 -56 -327c0 -27 8 -42 25 -47v-16c-28 -20 -53 -30 -76 -30c-30 0 -46 28 -47 84c-35 -54 -79 -81 -132 -81c-33 0 -35 18 -40 86c0 72 14 143 41 214c35 90 82 135 142 135
c42 -34 42 -34 45 -34c4 0 5 0 91 30c5 -3 7 -7 7 -14zM193 290c0 20 -28 57 -48 64c-34 -102 -51 -180 -51 -233v-37l16 -20c29 41 83 189 83 226z" />
    <glyph glyph-name="aacute" unicode="&#xe1;" 
d="M333 528l-139 -60l-26 22c68 51 107 80 118 87c5 -7 21 -23 47 -49zM328 419c-39 -128 -56 -224 -56 -327c0 -27 8 -42 25 -47v-16c-28 -20 -53 -30 -76 -30c-30 0 -46 28 -47 84c-35 -54 -79 -81 -132 -81c-33 0 -35 18 -40 86c0 72 14 143 41 214c35 90 82 135 142 135
c42 -34 42 -34 45 -34c4 0 5 0 91 30c5 -3 7 -7 7 -14zM193 290c0 20 -28 57 -48 64c-34 -102 -51 -180 -51 -233v-37l16 -20c29 41 83 189 83 226z" />
    <glyph glyph-name="acircumflex" unicode="&#xe2;" 
d="M332 471l-15 -9c-24 9 -56 22 -96 39l-99 -39l-15 9l113 87zM328 419c-39 -128 -56 -224 -56 -327c0 -27 8 -42 25 -47v-16c-28 -20 -53 -30 -76 -30c-30 0 -46 28 -47 84c-35 -54 -79 -81 -132 -81c-33 0 -35 18 -40 86c0 72 14 143 41 214c35 90 82 135 142 135
c42 -34 42 -34 45 -34c4 0 5 0 91 30c5 -3 7 -7 7 -14zM193 290c0 20 -28 57 -48 64c-34 -102 -51 -180 -51 -233v-37l16 -20c29 41 83 189 83 226z" />
    <glyph glyph-name="atilde" unicode="&#xe3;" 
d="M363 544c-55 -62 -64 -67 -90 -67c-15 0 -36 4 -63 12c-27 9 -46 13 -59 13s-29 -9 -46 -27l-18 8c42 50 60 66 88 66c15 0 36 -4 64 -12s49 -12 64 -12c12 0 26 9 42 26zM328 419c-39 -128 -56 -224 -56 -327c0 -27 8 -42 25 -47v-16c-28 -20 -53 -30 -76 -30
c-30 0 -46 28 -47 84c-35 -54 -79 -81 -132 -81c-33 0 -35 18 -40 86c0 72 14 143 41 214c35 90 82 135 142 135c42 -34 42 -34 45 -34c4 0 5 0 91 30c5 -3 7 -7 7 -14zM193 290c0 20 -28 57 -48 64c-34 -102 -51 -180 -51 -233v-37l16 -20c29 41 83 189 83 226z" />
    <glyph glyph-name="adieresis" unicode="&#xe4;" 
d="M328 419c-39 -128 -56 -224 -56 -327c0 -27 8 -42 25 -47v-16c-28 -20 -53 -30 -76 -30c-30 0 -46 28 -47 84c-35 -54 -79 -81 -132 -81c-33 0 -35 20 -40 86c0 72 14 143 41 214c35 90 82 135 142 135c42 -34 42 -34 45 -34c4 0 5 0 91 30c5 -3 7 -7 7 -14zM193 290
c0 20 -28 57 -48 64c-34 -102 -51 -180 -51 -233v-37l16 -20c29 41 83 189 83 226zM211 520c-19 -13 -40 -20 -61 -20c-25 0 -28 10 -29 63c0 12 3 18 8 19c18 3 43 7 76 13c-3 -10 -5 -19 -5 -26zM345 520c-19 -13 -40 -20 -61 -20c-25 0 -28 10 -29 63c0 12 3 18 8 19
c18 3 43 7 76 13c-3 -10 -5 -19 -5 -26z" />
    <glyph glyph-name="aring" unicode="&#xe5;" 
d="M311 531c0 -38 -32 -68 -73 -68c-42 0 -73 29 -73 68s32 69 73 69c40 0 73 -31 73 -69zM328 419c-39 -128 -56 -224 -56 -327c0 -27 8 -42 25 -47v-16c-28 -20 -53 -30 -76 -30c-30 0 -46 28 -47 84c-35 -54 -79 -81 -132 -81c-33 0 -35 18 -40 86c0 72 14 143 41 214
c35 90 82 135 142 135c42 -34 42 -34 45 -34c4 0 5 0 91 30c5 -3 7 -7 7 -14zM281 531c0 23 -20 39 -43 39c-25 0 -43 -16 -43 -39c0 -25 14 -38 43 -38s43 13 43 38zM193 290c0 20 -28 57 -48 64c-34 -102 -51 -180 -51 -233v-37l16 -20c29 41 83 189 83 226z" />
    <glyph glyph-name="ae" unicode="&#xe6;" horiz-adv-x="439" 
d="M415 373c0 -34 -18 -80 -53 -137c-36 -59 -69 -94 -100 -105c0 -43 26 -79 58 -79c9 0 27 5 54 16v-23c0 -24 -72 -49 -130 -49c-38 0 -65 18 -81 55c-39 -37 -75 -55 -110 -55c-28 0 -56 34 -56 70c0 74 91 221 153 243c0 43 -26 79 -58 79c-9 0 -27 -5 -54 -16
c0 40 2 45 56 60c27 8 52 12 75 12c37 0 64 -19 80 -56c39 37 76 56 110 56c30 0 56 -34 56 -71zM338 349c0 21 -6 32 -18 32c-26 0 -59 -100 -63 -184c31 11 81 105 81 152zM155 242c-31 -11 -81 -107 -81 -152c0 -21 6 -31 18 -31c26 0 59 98 63 183z" />
    <glyph glyph-name="ccedilla" unicode="&#xe7;" horiz-adv-x="271" 
d="M254 363c0 -9 -1 -13 -25 -91c-13 -6 -38 -16 -76 -31c-7 4 -10 9 -10 15c0 10 3 24 9 43s9 33 9 43c0 15 -4 22 -12 22c-23 0 -48 -123 -48 -182c0 -80 13 -120 40 -120c13 0 25 12 73 74c13 -11 20 -23 20 -36c0 -35 -77 -92 -130 -103c-1 -11 -4 -24 -11 -39
c17 3 29 4 36 4c15 0 23 -12 23 -35c0 -44 -56 -82 -120 -82c-25 0 -49 17 -49 37c0 15 10 22 29 22c21 -21 27 -27 41 -27c24 0 42 23 42 33c0 14 -4 22 -12 24c0 -1 -10 -1 -33 -1c3 15 10 37 21 66c-45 13 -68 62 -68 146c0 169 80 282 208 282c23 0 43 -30 43 -64z" />
    <glyph glyph-name="egrave" unicode="&#xe8;" horiz-adv-x="286" 
d="M290 481l-24 -21l-141 60l47 48c3 0 42 -29 118 -87zM265 373c0 -103 -130 -232 -153 -242c0 -43 26 -79 58 -79c10 0 28 5 54 16v-23c0 -24 -72 -49 -130 -49c-80 0 -97 83 -97 138c0 98 20 154 78 227c45 55 89 83 134 83c30 0 56 -34 56 -71zM188 349
c0 25 -4 32 -18 32c-22 0 -56 -82 -63 -184c30 11 81 110 81 152z" />
    <glyph glyph-name="eacute" unicode="&#xe9;" horiz-adv-x="286" 
d="M293 528l-139 -60l-26 22c68 51 107 80 118 87c5 -7 21 -23 47 -49zM265 373c0 -103 -130 -232 -153 -242c0 -43 26 -79 58 -79c10 0 28 5 54 16v-23c0 -24 -72 -49 -130 -49c-80 0 -97 83 -97 138c0 98 20 154 78 227c45 55 89 83 134 83c30 0 56 -34 56 -71zM188 349
c0 25 -4 32 -18 32c-22 0 -56 -82 -63 -184c30 11 81 110 81 152z" />
    <glyph glyph-name="ecircumflex" unicode="&#xea;" horiz-adv-x="286" 
d="M302 471l-15 -9c-24 9 -56 22 -96 39l-99 -39l-15 9l113 87zM265 373c0 -103 -130 -232 -153 -242c0 -43 26 -79 58 -79c10 0 28 5 54 16v-23c0 -24 -72 -49 -130 -49c-80 0 -97 83 -97 138c0 98 20 154 78 227c45 55 89 83 134 83c30 0 56 -34 56 -71zM188 349
c0 25 -4 32 -18 32c-22 0 -56 -82 -63 -184c30 11 81 110 81 152z" />
    <glyph glyph-name="edieresis" unicode="&#xeb;" horiz-adv-x="286" 
d="M265 373c0 -103 -130 -232 -153 -242c0 -43 26 -79 58 -79c10 0 28 5 54 16v-23c0 -24 -72 -49 -130 -49c-80 0 -97 83 -97 138c0 98 20 154 78 227c45 55 89 83 134 83c30 0 56 -34 56 -71zM188 349c0 25 -4 32 -18 32c-22 0 -56 -82 -63 -184c30 11 81 110 81 152z
M193 520c-19 -13 -40 -20 -61 -20c-25 0 -28 10 -29 63c0 12 3 18 8 19c18 3 43 7 76 13c-3 -10 -5 -19 -5 -26zM327 520c-19 -13 -40 -20 -61 -20c-25 0 -28 10 -29 63c0 12 3 18 8 19c18 3 43 7 76 13c-3 -10 -5 -19 -5 -26z" />
    <glyph glyph-name="igrave" unicode="&#xec;" horiz-adv-x="183" 
d="M210 481l-24 -21l-141 60l47 48c3 0 42 -29 118 -87zM177 395c0 -5 -3 -7 -8 -7c-13 0 -16 -3 -18 -17c-42 -257 -42 -258 -42 -279c0 -17 9 -40 26 -69c0 -6 -22 -14 -68 -29h2c-34 0 -64 48 -64 93c0 60 21 212 45 320c3 9 81 34 102 34z" />
    <glyph glyph-name="iacute" unicode="&#xed;" horiz-adv-x="183" 
d="M213 528l-139 -60l-26 22c68 51 107 80 118 87c5 -7 21 -23 47 -49zM177 395c0 -5 -3 -7 -8 -7c-13 0 -16 -3 -18 -17c-42 -257 -42 -258 -42 -279c0 -17 9 -40 26 -69c0 -6 -22 -14 -68 -29h2c-34 0 -64 48 -64 93c0 60 21 212 45 320c3 9 81 34 102 34z" />
    <glyph glyph-name="icircumflex" unicode="&#xee;" horiz-adv-x="183" 
d="M232 471l-15 -9c-24 9 -56 22 -96 39l-99 -39l-15 9l113 87zM177 395c0 -5 -3 -7 -8 -7c-13 0 -16 -3 -18 -17c-42 -257 -42 -258 -42 -279c0 -17 9 -40 26 -69c0 -6 -22 -14 -68 -29h2c-34 0 -64 48 -64 93c0 60 21 212 45 320c3 9 81 34 102 34z" />
    <glyph glyph-name="idieresis" unicode="&#xef;" horiz-adv-x="183" 
d="M177 395c0 -5 -3 -7 -8 -7c-13 0 -16 -3 -18 -17c-42 -257 -42 -258 -42 -279c0 -17 9 -40 26 -69c0 -6 -22 -14 -68 -29h2c-34 0 -64 48 -64 93c0 60 21 212 45 320c3 9 81 34 102 34zM124 520c-19 -13 -40 -20 -61 -20c-25 0 -28 10 -29 63c0 12 3 18 8 19
c18 3 43 7 76 13c-3 -10 -5 -19 -5 -26zM258 520c-19 -13 -40 -20 -61 -20c-25 0 -28 10 -29 63c0 12 3 18 8 19c18 3 43 7 76 13c-3 -10 -5 -19 -5 -26z" />
    <glyph glyph-name="eth" unicode="&#xf0;" horiz-adv-x="335" 
d="M309 497l-38 -356c0 -36 0 -56 27 -62c0 -34 -2 -46 -44 -64c-24 -11 -47 -16 -69 -16c-9 0 -15 22 -18 66c-58 -42 -99 -63 -124 -63c-27 27 -50 95 -50 143c0 61 29 158 64 214c31 50 67 75 109 75c3 0 12 -12 27 -35c9 6 30 47 30 64c0 24 -15 34 -81 62l-20 -71
l-52 18l22 73c-44 15 -56 22 -56 32c0 35 9 53 28 53c10 0 26 -4 47 -13l20 68l52 -24l-18 -64c23 -7 52 -18 87 -33l33 -19c22 -35 24 -38 24 -48zM201 349c0 11 -2 21 -6 29l-25 1c-31 0 -70 -113 -70 -198c0 -40 18 -79 38 -85l39 126c16 52 24 94 24 127z" />
    <glyph glyph-name="ntilde" unicode="&#xf1;" horiz-adv-x="359" 
d="M343 544c-55 -62 -64 -67 -90 -67c-15 0 -36 4 -63 12c-27 9 -46 13 -59 13s-29 -9 -46 -27l-18 8c42 50 60 66 88 66c15 0 36 -4 64 -12s49 -12 64 -12c12 0 26 9 42 26zM336 384c0 -38 -11 -93 -34 -165c-22 -72 -33 -124 -33 -157c0 -7 3 -10 9 -10c4 0 9 1 23 5
c6 0 9 -3 10 -10c-18 -26 -65 -55 -94 -55c-36 0 -54 22 -54 66c0 14 6 43 18 86c47 173 54 200 54 220l-15 2c-27 0 -78 -99 -94 -169c-2 -9 -14 -67 -35 -174c-20 -20 -43 -26 -95 -26l55 413c3 3 18 7 45 14l51 12c0 -49 0 -59 -4 -75c0 -5 2 -8 7 -8c11 0 24 8 37 23
c31 35 59 54 103 54c31 0 46 -15 46 -46z" />
    <glyph glyph-name="ograve" unicode="&#xf2;" horiz-adv-x="291" 
d="M260 481l-24 -21l-141 60l47 48c3 0 42 -29 118 -87zM266 205c0 -109 -93 -214 -189 -214c-40 0 -76 39 -76 81c0 135 25 271 57 301c13 12 95 57 115 57c50 0 93 -118 93 -225zM168 190c0 67 -16 133 -34 143c-18 -24 -28 -63 -29 -117l-3 -126c10 -6 20 -13 33 -19
c15 0 33 79 33 119z" />
    <glyph glyph-name="oacute" unicode="&#xf3;" horiz-adv-x="291" 
d="M263 518l-139 -60l-26 22c68 51 107 80 118 87c5 -7 21 -23 47 -49zM266 205c0 -109 -93 -214 -189 -214c-40 0 -76 39 -76 81c0 135 25 271 57 301c13 12 95 57 115 57c50 0 93 -118 93 -225zM168 190c0 67 -16 133 -34 143c-18 -24 -28 -63 -29 -117l-3 -126
c10 -6 20 -13 33 -19c15 0 33 79 33 119z" />
    <glyph glyph-name="ocircumflex" unicode="&#xf4;" horiz-adv-x="291" 
d="M272 461l-15 -9c-24 9 -56 22 -96 39l-99 -39l-15 9l113 87zM266 205c0 -109 -93 -214 -189 -214c-40 0 -76 39 -76 81c0 135 25 271 57 301c13 12 95 57 115 57c50 0 93 -118 93 -225zM168 190c0 67 -16 133 -34 143c-18 -24 -28 -63 -29 -117l-3 -126
c10 -6 20 -13 33 -19c15 0 33 79 33 119z" />
    <glyph glyph-name="otilde" unicode="&#xf5;" horiz-adv-x="291" 
d="M303 544c-55 -62 -64 -67 -90 -67c-15 0 -36 4 -63 12c-27 9 -46 13 -59 13s-29 -9 -46 -27l-18 8c42 50 60 66 88 66c15 0 36 -4 64 -12s49 -12 64 -12c12 0 26 9 42 26zM266 205c0 -109 -93 -214 -189 -214c-40 0 -76 39 -76 81c0 135 25 271 57 301
c13 12 95 57 115 57c50 0 93 -118 93 -225zM168 190c0 67 -16 133 -34 143c-18 -24 -28 -63 -29 -117l-3 -126c10 -6 20 -13 33 -19c15 0 33 79 33 119z" />
    <glyph glyph-name="odieresis" unicode="&#xf6;" horiz-adv-x="291" 
d="M266 205c0 -109 -93 -214 -189 -214c-40 0 -76 39 -76 81c0 135 25 271 57 301c13 12 95 57 115 57c50 0 93 -118 93 -225zM168 190c0 67 -16 133 -34 143c-18 -24 -28 -63 -29 -117l-3 -126c10 -6 20 -13 33 -19c15 0 33 79 33 119zM161 520c-19 -13 -40 -20 -61 -20
c-25 0 -28 10 -29 63c0 12 3 18 8 19c18 3 43 7 76 13c-3 -10 -5 -19 -5 -26zM295 520c-19 -13 -40 -20 -61 -20c-25 0 -28 10 -29 63c0 12 3 18 8 19c18 3 43 7 76 13c-3 -10 -5 -19 -5 -26z" />
    <glyph glyph-name="divide" unicode="&#xf7;" horiz-adv-x="552" 
d="M508 171h-440v98h440v-98zM211 401c0 43 34 77 77 77c42 0 77 -35 77 -77c0 -43 -34 -77 -77 -77c-44 0 -77 33 -77 77zM211 39c0 43 34 77 77 77c42 0 77 -35 77 -77c0 -43 -35 -78 -77 -78c-43 0 -77 34 -77 78z" />
    <glyph glyph-name="oslash" unicode="&#xf8;" horiz-adv-x="291" 
d="M266 205c0 -109 -93 -214 -189 -214l-17 2l-14 -33l-28 2l18 44c-23 19 -35 41 -35 66c0 139 14 231 43 278c11 16 110 80 129 80c9 0 19 -4 28 -11l16 39l29 -3l-25 -60c24 -42 45 -138 45 -190zM155 305c-7 23 -14 36 -23 39c-39 -53 -41 -69 -48 -218zM176 199
c0 17 -3 38 -9 62l-69 -171c22 -19 23 -19 37 -19c16 0 41 88 41 128z" />
    <glyph glyph-name="ugrave" unicode="&#xf9;" horiz-adv-x="329" 
d="M280 481l-24 -21l-141 60l47 48c3 0 42 -29 118 -87zM315 432l-51 -351l13 -33c0 -15 -76 -65 -94 -65c-12 0 -14 5 -22 66c-49 -49 -55 -55 -107 -55c-39 0 -50 20 -50 84c0 82 17 180 53 306c3 12 72 48 113 48c5 -9 7 -17 7 -24c-51 -186 -67 -272 -67 -334
c5 -7 6 -8 12 -8c33 0 36 16 81 271c22 73 51 95 112 95z" />
    <glyph glyph-name="uacute" unicode="&#xfa;" horiz-adv-x="329" 
d="M313 528l-139 -60l-26 22c68 51 107 80 118 87c5 -7 21 -23 47 -49zM315 432l-51 -351l13 -33c0 -15 -76 -65 -94 -65c-12 0 -14 5 -22 66c-49 -49 -55 -55 -107 -55c-39 0 -50 20 -50 84c0 82 17 180 53 306c3 12 72 48 113 48c5 -9 7 -17 7 -24
c-51 -186 -67 -272 -67 -334c5 -7 6 -8 12 -8c33 0 36 16 81 271c22 73 51 95 112 95z" />
    <glyph glyph-name="ucircumflex" unicode="&#xfb;" horiz-adv-x="329" 
d="M312 471l-15 -9c-24 9 -56 22 -96 39l-99 -39l-15 9l113 87zM315 432l-51 -351l13 -33c0 -15 -76 -65 -94 -65c-12 0 -14 5 -22 66c-49 -49 -55 -55 -107 -55c-39 0 -50 20 -50 84c0 82 17 180 53 306c3 12 72 48 113 48c5 -9 7 -17 7 -24c-51 -186 -67 -272 -67 -334
c5 -7 6 -8 12 -8c33 0 36 16 81 271c22 73 51 95 112 95z" />
    <glyph glyph-name="udieresis" unicode="&#xfc;" horiz-adv-x="329" 
d="M315 432l-51 -351l13 -33c0 -15 -76 -65 -94 -65c-12 0 -14 5 -22 66c-49 -49 -55 -55 -107 -55c-39 0 -50 20 -50 84c0 82 17 180 53 306c3 12 72 48 113 48c5 -9 7 -17 7 -24c-51 -186 -67 -272 -67 -334c5 -7 6 -8 12 -8c33 0 36 16 81 271c22 73 51 95 112 95z
M211 520c-19 -13 -40 -20 -61 -20c-25 0 -28 10 -29 63c0 12 3 18 8 19c18 3 43 7 76 13c-3 -10 -5 -19 -5 -26zM345 520c-19 -13 -40 -20 -61 -20c-25 0 -28 10 -29 63c0 12 3 18 8 19c18 3 43 7 76 13c-3 -10 -5 -19 -5 -26z" />
    <glyph glyph-name="yacute" unicode="&#xfd;" horiz-adv-x="325" 
d="M296 536l-166 -68l-29 24c96 66 145 99 147 99c11 -13 27 -31 48 -55zM303 442c-8 -39 -17 -124 -28 -253c-9 -112 -25 -201 -46 -266c-6 -20 -78 -63 -128 -63c-25 0 -47 45 -47 75c0 13 3 19 8 19c8 0 31 -17 68 -50c16 9 25 36 25 71l-2 70c-50 -43 -52 -44 -61 -44
c-55 0 -83 44 -83 132c0 59 9 131 28 216c-4 4 -5 4 -21 4c-2 3 -3 8 -3 15c0 23 76 71 107 71c14 0 34 -15 34 -27c-23 -46 -42 -153 -42 -252c0 -21 2 -37 7 -48c19 15 35 52 46 111c35 189 54 219 138 219z" />
    <glyph glyph-name="thorn" unicode="&#xfe;" horiz-adv-x="358" 
d="M335 364c0 -210 -77 -357 -187 -357c-10 0 -23 13 -39 39c-10 -51 -11 -89 -11 -139l-84 -24c-2 8 -3 16 -3 25c0 165 8 246 29 353l24 207c0 7 -5 11 -14 11c-5 0 -11 -1 -16 -3c-1 5 -2 10 -2 15c0 22 77 77 160 117c0 -13 0 -17 -4 -38l-8 -39l-17 -164
c9 3 24 8 43 17c39 31 68 46 87 46c28 0 42 -22 42 -66zM234 335l-16 4c-57 -37 -102 -141 -102 -239c12 7 28 17 49 32c7 -4 14 -20 22 -48c15 37 47 155 47 251z" />
    <glyph glyph-name="ydieresis" unicode="&#xff;" horiz-adv-x="325" 
d="M303 442c-13 -69 -17 -110 -29 -269c-7 -88 -22 -171 -45 -250c-8 -24 -74 -63 -128 -63c-25 0 -47 45 -47 75c0 13 3 19 8 19c4 0 27 -17 68 -50c20 9 25 32 25 71l-2 70c-54 -42 -57 -44 -61 -44c-55 0 -83 42 -83 126c0 61 9 135 28 222c-6 4 -9 4 -21 4
c-2 3 -3 8 -3 15c0 23 76 71 107 71c14 0 34 -15 34 -27c-31 -84 -42 -150 -42 -267c0 -10 2 -21 7 -33c19 15 35 53 46 112c36 184 53 218 138 218zM191 520c-19 -13 -40 -20 -61 -20c-25 0 -28 10 -29 63c0 12 3 18 8 19c18 3 43 7 76 13c-3 -10 -5 -19 -5 -26zM325 520
c-19 -13 -40 -20 -61 -20c-25 0 -28 10 -29 63c0 12 3 18 8 19c18 3 43 7 76 13c-3 -10 -5 -19 -5 -26z" />
  </font>
</defs>
</svg>
